<svg width="1269" height="300" viewBox="0 0 1269 300" fill="none" xmlns="http://www.w3.org/2000/svg">
<path fill-rule="evenodd" clip-rule="evenodd" d="M170.2 290.7C140.5 290.7 12 216.5 12 196.8C12 177.1 140.5 107.8 170.2 107.8C199.9 107.8 328.4 177 328.4 196.8C328.4 216.6 199.8 290.7 170.2 290.7Z" fill="#2B3458"/>
<path fill-rule="evenodd" clip-rule="evenodd" d="M170.2 241.2C140.5 241.2 12 167 12 147.3C12 127.6 140.5 58.3 170.2 58.3C199.9 58.3 328.4 127.5 328.4 147.3C328.4 167.1 199.8 241.2 170.2 241.2Z" fill="#F7F7FE"/>
<path fill-rule="evenodd" clip-rule="evenodd" d="M170.2 191.8C140.5 191.8 12 117.6 12 97.9C12 78.2 140.5 8.89999 170.2 8.89999C199.9 8.89999 328.4 78.1 328.4 97.9C328.4 117.7 199.8 191.8 170.2 191.8Z" fill="#3E7BFA"/>
<path d="M401.7 76.4H544V111.8H492.7V243.3H452.9V111.8H401.8V76.4H401.7Z" fill="#2B3458"/>
<path d="M657.9 186.3V193.6H568.4C569.7 201.9 572.7 208.2 577.5 212.6C582.3 217 588.5 219.2 596 219.2C607.9 219.2 616 214.7 620.4 205.6H655.1C651.8 218.1 644.9 228 634.2 235.4C623.6 242.6 610.8 246.2 596 246.2C577.3 246.2 562.1 240.4 550.5 228.9C538.9 217.3 533.2 202 533.2 183C533.2 163.8 538.9 148.5 550.3 137.1C561.5 125.5 576.6 119.8 595.5 119.8C614.2 119.8 629.4 125.8 641 137.8C652.3 149.7 657.9 166 657.9 186.3ZM595.1 146.5C580.1 146.5 571.3 154.5 568.6 170.4H622C620.7 162.9 617.8 157 613.1 152.8C608.4 148.6 602.4 146.5 595.1 146.5Z" fill="#2B3458"/>
<path d="M730.1 246.1C711.2 246.1 696.1 240.3 684.9 228.8C673.7 217.2 668 201.9 668 182.9C668 163.5 673.6 148.1 684.9 136.7C696.1 125.3 711.2 119.6 730.1 119.6C746.7 119.6 760.2 124 770.6 132.7C781.2 141.3 787.4 153 789.1 167.9H752.8C750.8 155.6 743.2 149.4 730.1 149.4C713.4 149.4 705 160.6 705 182.9C705 205.1 713.4 216.2 730.1 216.2C744.2 216.2 752 209.4 753.5 195.8H789.8C788.7 211.1 782.7 223.4 771.8 232.6C760.9 241.5 746.9 246.1 730.1 246.1Z" fill="#2B3458"/>
<path d="M881.2 119.5C894 119.5 904.2 123.4 911.7 131.2C919.4 138.9 923.2 149.8 923.2 164V243.2H886.6V171.3C886.6 157.6 880.1 150.7 867.1 150.7C860.5 150.7 855.1 152.9 850.7 157.3C846.3 161.7 844.1 167.8 844.1 175.8V243.3H807.5V76.4H844.1V138.3C853.4 125.8 865.8 119.5 881.2 119.5Z" fill="#2B3458"/>
<path d="M1016 119.5C1028.8 119.5 1039 123.4 1046.5 131.2C1054.2 138.9 1058 149.8 1058 164V243.2H1021.4V171.3C1021.4 157.6 1014.9 150.7 1001.9 150.7C995.3 150.7 989.9 152.9 985.5 157.3C981.1 161.7 978.9 167.8 978.9 175.8V243.3H942.3V122.3H978V139.4C987.4 126.2 1000.1 119.5 1016 119.5Z" fill="#2B3458"/>
<path d="M1118.9 108.5H1084V77.6H1118.9V108.5ZM1119.6 243.3H1083V122.3H1119.6V243.3Z" fill="#2B3458"/>
<path d="M1198.3 246.8C1179.2 246.8 1165 243.5 1155.6 237C1146.4 230.3 1141.2 219.6 1140.1 204.9H1175.7C1176.3 211.3 1178.4 215.8 1181.8 218.5C1185.4 221.2 1191.1 222.5 1198.9 222.5C1212.5 222.5 1219.3 218.6 1219.3 210.8C1219.3 207.1 1217.8 204.2 1214.8 202.4C1211.8 200.4 1206.4 198.7 1198.4 197.5L1182.7 194.9C1155.5 190.7 1141.9 178.3 1141.9 157.9C1141.9 145.7 1146.6 136.3 1156 129.8C1165.4 123.1 1178.8 119.7 1196.3 119.7C1232.4 119.7 1251.1 133.5 1252.5 161.2H1218.5C1218.3 149.8 1210.9 144.1 1196.2 144.1C1183.9 144.1 1177.7 147.9 1177.7 155.6C1177.7 159 1179.1 161.7 1181.9 163.6C1184.7 165.5 1189.2 166.9 1195.3 167.8L1213.3 170.4C1227.8 172.6 1238.5 176.7 1245.4 182.8C1252.3 188.9 1255.7 197.3 1255.7 207.9C1255.7 220.4 1250.6 230.1 1240.5 237C1230.7 243.4 1216.6 246.8 1198.3 246.8Z" fill="#2B3458"/>
</svg>
