<svg width="324" height="291" viewBox="0 0 324 291" fill="none" xmlns="http://www.w3.org/2000/svg">
<path fill-rule="evenodd" clip-rule="evenodd" d="M162.2 286.7C132.5 286.7 4 212.5 4 192.8C4 173.1 132.5 103.8 162.2 103.8C191.9 103.8 320.4 173 320.4 192.8C320.4 212.6 191.8 286.7 162.2 286.7Z" fill="#2B3458"/>
<path fill-rule="evenodd" clip-rule="evenodd" d="M162.2 237.2C132.5 237.2 4 163 4 143.3C4 123.6 132.5 54.3 162.2 54.3C191.9 54.3 320.4 123.5 320.4 143.3C320.4 163.1 191.8 237.2 162.2 237.2Z" fill="#F7F7FE"/>
<path fill-rule="evenodd" clip-rule="evenodd" d="M162.2 187.8C132.5 187.8 4 113.6 4 93.9C4 74.2 132.5 4.89999 162.2 4.89999C191.9 4.89999 320.4 74.1 320.4 93.9C320.4 113.7 191.8 187.8 162.2 187.8Z" fill="#3E7BFA"/>
</svg>
