<svg width="336" height="337" viewBox="0 0 336 337" fill="none" xmlns="http://www.w3.org/2000/svg">
<path fill-rule="evenodd" clip-rule="evenodd" d="M27.8614 189.713C65.4563 220.373 145.289 264.9 168 264.9C190.647 264.9 270.594 220.384 308.187 189.706C320.288 199.124 328 207.265 328 212.328C328 233.113 197.937 310.9 168 310.9C137.962 310.9 8 233.008 8 212.328C8 207.284 15.7326 199.141 27.8614 189.713Z" fill="#2B3458"/>
<path fill-rule="evenodd" clip-rule="evenodd" d="M168 218.9C137.962 218.9 8 141.008 8 120.328C8 99.6479 137.962 26.9 168 26.9C198.038 26.9 328 99.543 328 120.328C328 141.113 197.937 218.9 168 218.9Z" fill="#3E7BFA"/>
</svg>
