<svg width="43" height="44" viewBox="0 0 43 44" fill="none" xmlns="http://www.w3.org/2000/svg">
<path fill-rule="evenodd" clip-rule="evenodd" d="M3.56559 24.5635C8.37684 28.4873 18.5935 34.1857 21.5 34.1857C24.3983 34.1857 34.6296 28.4888 39.4406 24.5627C40.9892 25.768 41.9762 26.8098 41.9762 27.4578C41.9762 30.1178 25.3312 40.0726 21.5 40.0726C17.6559 40.0726 1.0238 30.1043 1.0238 27.4578C1.0238 26.8122 2.01339 25.7702 3.56559 24.5635Z" fill="#2B3458"/>
<path fill-rule="evenodd" clip-rule="evenodd" d="M21.5 28.2988C17.6559 28.2988 1.0238 18.3305 1.0238 15.6839C1.0238 13.0374 17.6559 3.72738 21.5 3.72738C25.3441 3.72738 41.9762 13.0239 41.9762 15.6839C41.9762 18.3439 25.3312 28.2988 21.5 28.2988Z" fill="#3E7BFA"/>
</svg>
