<svg width="20" height="20" viewBox="0 0 20 20" fill="none" xmlns="http://www.w3.org/2000/svg">
<g clip-path="url(#clip0_4870_104620)">
<rect y="17.5" width="20" height="2" rx="1" fill="#8A8DBA"/>
<path d="M4.33333 7.44444L4.80962 8.32374H4.80962L4.33333 7.44444ZM7 6H8V4.32105L6.52372 5.12071L7 6ZM4 17C4 16.9953 4 16.9906 4 16.9859C4 16.9812 4 16.9765 4 16.9718C4 16.967 4 16.9623 4 16.9576C4 16.9529 4 16.9482 4 16.9434C4 16.9387 4 16.934 4 16.9293C4 16.9245 4 16.9198 4 16.9151C4 16.9103 4 16.9056 4 16.9009C4 16.8961 4 16.8914 4 16.8867C4 16.8819 4 16.8772 4 16.8724C4 16.8677 4 16.8629 4 16.8582C4 16.8534 4 16.8487 4 16.8439C4 16.8391 4 16.8344 4 16.8296C4 16.8249 4 16.8201 4 16.8153C4 16.8106 4 16.8058 4 16.801C4 16.7962 4 16.7915 4 16.7867C4 16.7819 4 16.7771 4 16.7723C4 16.7676 4 16.7628 4 16.758C4 16.7532 4 16.7484 4 16.7436C4 16.7388 4 16.734 4 16.7292C4 16.7245 4 16.7197 4 16.7149C4 16.7101 4 16.7052 4 16.7004C4 16.6956 4 16.6908 4 16.686C4 16.6812 4 16.6764 4 16.6716C4 16.6668 4 16.662 4 16.6571C4 16.6523 4 16.6475 4 16.6427C4 16.6379 4 16.633 4 16.6282C4 16.6234 4 16.6186 4 16.6137C4 16.6089 4 16.6041 4 16.5992C4 16.5944 4 16.5895 4 16.5847C4 16.5799 4 16.575 4 16.5702C4 16.5653 4 16.5605 4 16.5556C4 16.5508 4 16.5459 4 16.5411C4 16.5362 4 16.5314 4 16.5265C4 16.5217 4 16.5168 4 16.512C4 16.5071 4 16.5022 4 16.4974C4 16.4925 4 16.4876 4 16.4828C4 16.4779 4 16.473 4 16.4682C4 16.4633 4 16.4584 4 16.4536C4 16.4487 4 16.4438 4 16.4389C4 16.434 4 16.4292 4 16.4243C4 16.4194 4 16.4145 4 16.4096C4 16.4047 4 16.3998 4 16.395C4 16.3901 4 16.3852 4 16.3803C4 16.3754 4 16.3705 4 16.3656C4 16.3607 4 16.3558 4 16.3509C4 16.346 4 16.3411 4 16.3362C4 16.3313 4 16.3264 4 16.3215C4 16.3166 4 16.3116 4 16.3067C4 16.3018 4 16.2969 4 16.292C4 16.2871 4 16.2822 4 16.2772C4 16.2723 4 16.2674 4 16.2625C4 16.2576 4 16.2526 4 16.2477C4 16.2428 4 16.2379 4 16.2329C4 16.228 4 16.2231 4 16.2181C4 16.2132 4 16.2083 4 16.2033C4 16.1984 4 16.1935 4 16.1885C4 16.1836 4 16.1787 4 16.1737C4 16.1688 4 16.1638 4 16.1589C4 16.154 4 16.149 4 16.1441C4 16.1391 4 16.1342 4 16.1292C4 16.1243 4 16.1193 4 16.1144C4 16.1094 4 16.1045 4 16.0995C4 16.0945 4 16.0896 4 16.0846C4 16.0797 4 16.0747 4 16.0697C4 16.0648 4 16.0598 4 16.0549C4 16.0499 4 16.0449 4 16.04C4 16.035 4 16.03 4 16.0251C4 16.0201 4 16.0151 4 16.0101C4 16.0052 4 16.0002 4 15.9952C4 15.9903 4 15.9853 4 15.9803C4 15.9753 4 15.9703 4 15.9654C4 15.9604 4 15.9554 4 15.9504C4 15.9454 4 15.9405 4 15.9355C4 15.9305 4 15.9255 4 15.9205C4 15.9155 4 15.9105 4 15.9055C4 15.9006 4 15.8956 4 15.8906C4 15.8856 4 15.8806 4 15.8756C4 15.8706 4 15.8656 4 15.8606C4 15.8556 4 15.8506 4 15.8456C4 15.8406 4 15.8356 4 15.8306C4 15.8256 4 15.8206 4 15.8156C4 15.8106 4 15.8056 4 15.8006C4 15.7956 4 15.7906 4 15.7856C4 15.7806 4 15.7756 4 15.7706C4 15.7655 4 15.7605 4 15.7555C4 15.7505 4 15.7455 4 15.7405C4 15.7355 4 15.7305 4 15.7254C4 15.7204 4 15.7154 4 15.7104C4 15.7054 4 15.7004 4 15.6953C4 15.6903 4 15.6853 4 15.6803C4 15.6753 4 15.6702 4 15.6652C4 15.6602 4 15.6552 4 15.6502C4 15.6451 4 15.6401 4 15.6351C4 15.6301 4 15.625 4 15.62C4 15.615 4 15.6099 4 15.6049C4 15.5999 4 15.5949 4 15.5898C4 15.5848 4 15.5798 4 15.5747C4 15.5697 4 15.5647 4 15.5596C4 15.5546 4 15.5496 4 15.5445C4 15.5395 4 15.5345 4 15.5294C4 15.5244 4 15.5194 4 15.5143C4 15.5093 4 15.5042 4 15.4992C4 15.4942 4 15.4891 4 15.4841C4 15.479 4 15.474 4 15.469C4 15.4639 4 15.4589 4 15.4538C4 15.4488 4 15.4438 4 15.4387C4 15.4337 4 15.4286 4 15.4236C4 15.4185 4 15.4135 4 15.4084C4 15.4034 4 15.3983 4 15.3933C4 15.3883 4 15.3832 4 15.3782C4 15.3731 4 15.3681 4 15.363C4 15.358 4 15.3529 4 15.3479C4 15.3428 4 15.3378 4 15.3327C4 15.3277 4 15.3226 4 15.3176C4 15.3125 4 15.3075 4 15.3024C4 15.2974 4 15.2923 4 15.2872C4 15.2822 4 15.2771 4 15.2721C4 15.267 4 15.262 4 15.2569C4 15.2519 4 15.2468 4 15.2418C4 15.2367 4 15.2316 4 15.2266C4 15.2215 4 15.2165 4 15.2114C4 15.2064 4 15.2013 4 15.1963C4 15.1912 4 15.1861 4 15.1811C4 15.176 4 15.171 4 15.1659C4 15.1609 4 15.1558 4 15.1507C4 15.1457 4 15.1406 4 15.1356C4 15.1305 4 15.1254 4 15.1204C4 15.1153 4 15.1103 4 15.1052C4 15.1001 4 15.0951 4 15.09C4 15.085 4 15.0799 4 15.0749C4 15.0698 4 15.0647 4 15.0597C4 15.0546 4 15.0496 4 15.0445C4 15.0394 4 15.0344 4 15.0293C4 15.0243 4 15.0192 4 15.0141C4 15.0091 4 15.004 4 14.999C4 14.9939 4 14.9888 4 14.9838C4 14.9787 4 14.9737 4 14.9686C4 14.9635 4 14.9585 4 14.9534C4 14.9484 4 14.9433 4 14.9382C4 14.9332 4 14.9281 4 14.9231C4 14.918 4 14.9129 4 14.9079C4 14.9028 4 14.8978 4 14.8927C4 14.8876 4 14.8826 4 14.8775C4 14.8725 4 14.8674 4 14.8623C4 14.8573 4 14.8522 4 14.8472C4 14.8421 4 14.8371 4 14.832C4 14.8269 4 14.8219 4 14.8168C4 14.8118 4 14.8067 4 14.8017C4 14.7966 4 14.7915 4 14.7865C4 14.7814 4 14.7764 4 14.7713C4 14.7663 4 14.7612 4 14.7562C4 14.7511 4 14.746 4 14.741C4 14.7359 4 14.7309 4 14.7258C4 14.7208 4 14.7157 4 14.7107C4 14.7056 4 14.7006 4 14.6955C4 14.6905 4 14.6854 4 14.6804C4 14.6753 4 14.6703 4 14.6652C4 14.6602 4 14.6551 4 14.6501C4 14.645 4 14.64 4 14.6349C4 14.6299 4 14.6248 4 14.6198C4 14.6147 4 14.6097 4 14.6046C4 14.5996 4 14.5945 4 14.5895C4 14.5844 4 14.5794 4 14.5744C4 14.5693 4 14.5643 4 14.5592C4 14.5542 4 14.5491 4 14.5441C4 14.539 4 14.534 4 14.529C4 14.5239 4 14.5189 4 14.5138C4 14.5088 4 14.5038 4 14.4987C4 14.4937 4 14.4887 4 14.4836C4 14.4786 4 14.4735 4 14.4685C4 14.4635 4 14.4584 4 14.4534C4 14.4484 4 14.4433 4 14.4383C4 14.4333 4 14.4282 4 14.4232C4 14.4182 4 14.4131 4 14.4081C4 14.4031 4 14.3981 4 14.393C4 14.388 4 14.383 4 14.3779C4 14.3729 4 14.3679 4 14.3629C4 14.3578 4 14.3528 4 14.3478C4 14.3428 4 14.3377 4 14.3327C4 14.3277 4 14.3227 4 14.3177C4 14.3126 4 14.3076 4 14.3026C4 14.2976 4 14.2926 4 14.2876C4 14.2825 4 14.2775 4 14.2725C4 14.2675 4 14.2625 4 14.2575C4 14.2525 4 14.2474 4 14.2424C4 14.2374 4 14.2324 4 14.2274C4 14.2224 4 14.2174 4 14.2124C4 14.2074 4 14.2024 4 14.1974C4 14.1924 4 14.1874 4 14.1824C4 14.1774 4 14.1724 4 14.1674C4 14.1624 4 14.1574 4 14.1524C4 14.1474 4 14.1424 4 14.1374C4 14.1324 4 14.1274 4 14.1224C4 14.1174 4 14.1124 4 14.1074C4 14.1024 4 14.0974 4 14.0924C4 14.0875 4 14.0825 4 14.0775C4 14.0725 4 14.0675 4 14.0625C4 14.0575 4 14.0526 4 14.0476C4 14.0426 4 14.0376 4 14.0326C4 14.0277 4 14.0227 4 14.0177C4 14.0127 4 14.0078 4 14.0028C4 13.9978 4 13.9928 4 13.9879C4 13.9829 4 13.9779 4 13.9729C4 13.968 4 13.963 4 13.958C4 13.9531 4 13.9481 4 13.9432C4 13.9382 4 13.9332 4 13.9283C4 13.9233 4 13.9184 4 13.9134C4 13.9084 4 13.9035 4 13.8985C4 13.8936 4 13.8886 4 13.8837C4 13.8787 4 13.8738 4 13.8688C4 13.8639 4 13.8589 4 13.854C4 13.849 4 13.8441 4 13.8391C4 13.8342 4 13.8293 4 13.8243C4 13.8194 4 13.8144 4 13.8095C4 13.8046 4 13.7996 4 13.7947C4 13.7898 4 13.7848 4 13.7799C4 13.775 4 13.77 4 13.7651C4 13.7602 4 13.7553 4 13.7503C4 13.7454 4 13.7405 4 13.7356C4 13.7307 4 13.7257 4 13.7208C4 13.7159 4 13.711 4 13.7061C4 13.7012 4 13.6962 4 13.6913C4 13.6864 4 13.6815 4 13.6766C4 13.6717 4 13.6668 4 13.6619C4 13.657 4 13.6521 4 13.6472C4 13.6423 4 13.6374 4 13.6325C4 13.6276 4 13.6227 4 13.6178C4 13.6129 4 13.608 4 13.6031C4 13.5983 4 13.5934 4 13.5885C4 13.5836 4 13.5787 4 13.5738C4 13.569 4 13.5641 4 13.5592C4 13.5543 4 13.5494 4 13.5446C4 13.5397 4 13.5348 4 13.5299C4 13.5251 4 13.5202 4 13.5153C4 13.5105 4 13.5056 4 13.5008C4 13.4959 4 13.491 4 13.4862C4 13.4813 4 13.4765 4 13.4716C4 13.4667 4 13.4619 4 13.457C4 13.4522 4 13.4473 4 13.4425C4 13.4377 4 13.4328 4 13.428C4 13.4231 4 13.4183 4 13.4134C4 13.4086 4 13.4038 4 13.3989C4 13.3941 4 13.3893 4 13.3844C4 13.3796 4 13.3748 4 13.37C4 13.3651 4 13.3603 4 13.3555C4 13.3507 4 13.3459 4 13.341C4 13.3362 4 13.3314 4 13.3266C4 13.3218 4 13.317 4 13.3122C4 13.3074 4 13.3026 4 13.2978C4 13.2929 4 13.2881 4 13.2833C4 13.2785 4 13.2738 4 13.269C4 13.2642 4 13.2594 4 13.2546C4 13.2498 4 13.245 4 13.2402C4 13.2354 4 13.2307 4 13.2259C4 13.2211 4 13.2163 4 13.2115C4 13.2068 4 13.202 4 13.1972C4 13.1925 4 13.1877 4 13.1829C4 13.1782 4 13.1734 4 13.1686C4 13.1639 4 13.1591 4 13.1544C4 13.1496 4 13.1448 4 13.1401C4 13.1353 4 13.1306 4 13.1258C4 13.1211 4 13.1164 4 13.1116C4 13.1069 4 13.1021 4 13.0974C4 13.0927 4 13.0879 4 13.0832C4 13.0785 4 13.0737 4 13.069C4 13.0643 4 13.0596 4 13.0548C4 13.0501 4 13.0454 4 13.0407C4 13.036 4 13.0313 4 13.0265C4 13.0218 4 13.0171 4 13.0124C4 13.0077 4 13.003 4 12.9983C4 12.9936 4 12.9889 4 12.9842C4 12.9795 4 12.9748 4 12.9701C4 12.9655 4 12.9608 4 12.9561C4 12.9514 4 12.9467 4 12.942C4 12.9374 4 12.9327 4 12.928C4 12.9233 4 12.9187 4 12.914C4 12.9093 4 12.9047 4 12.9C4 12.8953 4 12.8907 4 12.886C4 12.8814 4 12.8767 4 12.8721C4 12.8674 4 12.8628 4 12.8581C4 12.8535 4 12.8488 4 12.8442C4 12.8396 4 12.8349 4 12.8303C4 12.8257 4 12.821 4 12.8164C4 12.8118 4 12.8072 4 12.8025C4 12.7979 4 12.7933 4 12.7887C4 12.7841 4 12.7794 4 12.7748C4 12.7702 4 12.7656 4 12.761C4 12.7564 4 12.7518 4 12.7472C4 12.7426 4 12.738 4 12.7334C4 12.7288 4 12.7243 4 12.7197C4 12.7151 4 12.7105 4 12.7059C4 12.7013 4 12.6968 4 12.6922C4 12.6876 4 12.683 4 12.6785C4 12.6739 4 12.6693 4 12.6648C4 12.6602 4 12.6557 4 12.6511C4 12.6466 4 12.642 4 12.6375C4 12.6329 4 12.6284 4 12.6238C4 12.6193 4 12.6147 4 12.6102C4 12.6057 4 12.6011 4 12.5966C4 12.5921 4 12.5876 4 12.583C4 12.5785 4 12.574 4 12.5695C4 12.565 4 12.5605 4 12.5559C4 12.5514 4 12.5469 4 12.5424C4 12.5379 4 12.5334 4 12.5289C4 12.5244 4 12.5199 4 12.5154C4 12.511 4 12.5065 4 12.502C4 12.4975 4 12.493 4 12.4886C4 12.4841 4 12.4796 4 12.4751C4 12.4707 4 12.4662 4 12.4617C4 12.4573 4 12.4528 4 12.4484C4 12.4439 4 12.4395 4 12.435C4 12.4306 4 12.4261 4 12.4217C4 12.4172 4 12.4128 4 12.4084C4 12.4039 4 12.3995 4 12.3951C4 12.3906 4 12.3862 4 12.3818C4 12.3774 4 12.373 4 12.3685C4 12.3641 4 12.3597 4 12.3553C4 12.3509 4 12.3465 4 12.3421C4 12.3377 4 12.3333 4 12.3289C4 12.3245 4 12.3201 4 12.3158C4 12.3114 4 12.307 4 12.3026C4 12.2982 4 12.2939 4 12.2895C4 12.2851 4 12.2808 4 12.2764C4 12.272 4 12.2677 4 12.2633C4 12.259 4 12.2546 4 12.2503C4 12.2459 4 12.2416 4 12.2372C4 12.2329 4 12.2286 4 12.2242C4 12.2199 4 12.2156 4 12.2112C4 12.2069 4 12.2026 4 12.1983C4 12.194 4 12.1896 4 12.1853C4 12.181 4 12.1767 4 12.1724C4 12.1681 4 12.1638 4 12.1595C4 12.1552 4 12.1509 4 12.1467C4 12.1424 4 12.1381 4 12.1338C4 12.1295 4 12.1253 4 12.121C4 12.1167 4 12.1125 4 12.1082C4 12.1039 4 12.0997 4 12.0954C4 12.0912 4 12.0869 4 12.0827C4 12.0784 4 12.0742 4 12.0699C4 12.0657 4 12.0615 4 12.0572C4 12.053 4 12.0488 4 12.0445C4 12.0403 4 12.0361 4 12.0319C4 12.0277 4 12.0235 4 12.0193C4 12.0151 4 12.0109 4 12.0067C4 12.0025 4 11.9983 4 11.9941C4 11.9899 4 11.9857 4 11.9815C4 11.9773 4 11.9732 4 11.969C4 11.9648 4 11.9606 4 11.9565C4 11.9523 4 11.9482 4 11.944C4 11.9398 4 11.9357 4 11.9315C4 11.9274 4 11.9233 4 11.9191C4 11.915 4 11.9108 4 11.9067C4 11.9026 4 11.8985 4 11.8943C4 11.8902 4 11.8861 4 11.882C4 11.8779 4 11.8738 4 11.8697C4 11.8655 4 11.8614 4 11.8573C4 11.8533 4 11.8492 4 11.8451C4 11.841 4 11.8369 4 11.8328C4 11.8287 4 11.8247 4 11.8206C4 11.8165 4 11.8125 4 11.8084C4 11.8043 4 11.8003 4 11.7962C4 11.7922 4 11.7881 4 11.7841C4 11.7801 4 11.776 4 11.772C4 11.7679 4 11.7639 4 11.7599C4 11.7559 4 11.7518 4 11.7478C4 11.7438 4 11.7398 4 11.7358C4 11.7318 4 11.7278 4 11.7238C4 11.7198 4 11.7158 4 11.7118C4 11.7078 4 11.7038 4 11.6999C4 11.6959 4 11.6919 4 11.6879C4 11.684 4 11.68 4 11.676C4 11.6721 4 11.6681 4 11.6642C4 11.6602 4 11.6563 4 11.6523C4 11.6484 4 11.6444 4 11.6405C4 11.6366 4 11.6326 4 11.6287C4 11.6248 4 11.6209 4 11.617C4 11.6131 4 11.6091 4 11.6052C4 11.6013 4 11.5974 4 11.5935C4 11.5896 4 11.5858 4 11.5819C4 11.578 4 11.5741 4 11.5702C4 11.5664 4 11.5625 4 11.5586C4 11.5548 4 11.5509 4 11.547C4 11.5432 4 11.5393 4 11.5355C4 11.5316 4 11.5278 4 11.524C4 11.5201 4 11.5163 4 11.5125C4 11.5086 4 11.5048 4 11.501C4 11.4972 4 11.4934 4 11.4896C4 11.4858 4 11.482 4 11.4782C4 11.4744 4 11.4706 4 11.4668C4 11.463 4 11.4592 4 11.4554C4 11.4517 4 11.4479 4 11.4441C4 11.4404 4 11.4366 4 11.4328C4 11.4291 4 11.4253 4 11.4216C4 11.4178 4 11.4141 4 11.4104C4 11.4066 4 11.4029 4 11.3992C4 11.3954 4 11.3917 4 11.388C4 11.3843 4 11.3806 4 11.3769C4 11.3732 4 11.3695 4 11.3658C4 11.3621 4 11.3584 4 11.3547C4 11.351 4 11.3473 4 11.3437C4 11.34 4 11.3363 4 11.3326C4 11.329 4 11.3253 4 11.3217C4 11.318 4 11.3144 4 11.3107C4 11.3071 4 11.3034 4 11.2998C4 11.2962 4 11.2926 4 11.2889C4 11.2853 4 11.2817 4 11.2781C4 11.2745 4 11.2709 4 11.2673C4 11.2637 4 11.2601 4 11.2565C4 11.2529 4 11.2493 4 11.2457C4 11.2421 4 11.2386 4 11.235C4 11.2314 4 11.2279 4 11.2243C4 11.2208 4 11.2172 4 11.2137C4 11.2101 4 11.2066 4 11.203C4 11.1995 4 11.196 4 11.1925C4 11.1889 4 11.1854 4 11.1819C4 11.1784 4 11.1749 4 11.1714C4 11.1679 4 11.1644 4 11.1609C4 11.1574 4 11.1539 4 11.1504C4 11.1469 4 11.1435 4 11.14C4 11.1365 4 11.1331 4 11.1296C4 11.1262 4 11.1227 4 11.1193C4 11.1158 4 11.1124 4 11.1089C4 11.1055 4 11.1021 4 11.0986C4 11.0952 4 11.0918 4 11.0884C4 11.085 4 11.0816 4 11.0782C4 11.0748 4 11.0714 4 11.068C4 11.0646 4 11.0612 4 11.0578C4 11.0545 4 11.0511 4 11.0477C4 11.0444 4 11.041 4 11.0376C4 11.0343 4 11.0309 4 11.0276C4 11.0242 4 11.0209 4 11.0176C4 11.0142 4 11.0109 4 11.0076C4 11.0043 4 11.001 4 10.9977C4 10.9943 4 10.991 4 10.9877C4 10.9845 4 10.9812 4 10.9779C4 10.9746 4 10.9713 4 10.968C4 10.9648 4 10.9615 4 10.9582C4 10.955 4 10.9517 4 10.9485C4 10.9452 4 10.942 4 10.9387C4 10.9355 4 10.9323 4 10.9291C4 10.9258 4 10.9226 4 10.9194C4 10.9162 4 10.913 4 10.9098C4 10.9066 4 10.9034 4 10.9002C4 10.897 4 10.8938 4 10.8906C4 10.8875 4 10.8843 4 10.8811C4 10.878 4 10.8748 4 10.8717C4 10.8685 4 10.8654 4 10.8622C4 10.8591 4 10.8559 4 10.8528C4 10.8497 4 10.8466 4 10.8435C4 10.8403 4 10.8372 4 10.8341C4 10.831 4 10.8279 4 10.8248C4 10.8218 4 10.8187 4 10.8156C4 10.8125 4 10.8094 4 10.8064C4 10.8033 4 10.8002 4 10.7972C4 10.7941 4 10.7911 4 10.7881C4 10.785 4 10.782 4 10.779C4 10.7759 4 10.7729 4 10.7699C4 10.7669 4 10.7639 4 10.7609C4 10.7579 4 10.7549 4 10.7519C4 10.7489 4 10.7459 4 10.7429C4 10.74 4 10.737 4 10.734C4 10.7311 4 10.7281 4 10.7251C4 10.7222 4 10.7193 4 10.7163C4 10.7134 4 10.7104 4 10.7075C4 10.7046 4 10.7017 4 10.6988C4 10.6959 4 10.6929 4 10.69C4 10.6872 4 10.6843 4 10.6814C4 10.6785 4 10.6756 4 10.6727C4 10.6699 4 10.667 4 10.6641C4 10.6613 4 10.6584 4 10.6556C4 10.6527 4 10.6499 4 10.6471C4 10.6442 4 10.6414 4 10.6386C4 10.6358 4 10.6329 4 10.6301C4 10.6273 4 10.6245 4 10.6217C4 10.6189 4 10.6162 4 10.6134C4 10.6106 4 10.6078 4 10.6051C4 10.6023 4 10.5995 4 10.5968C4 10.594 4 10.5913 4 10.5885C4 10.5858 4 10.5831 4 10.5803C4 10.5776 4 10.5749 4 10.5722C4 10.5695 4 10.5668 4 10.5641C4 10.5614 4 10.5587 4 10.556C4 10.5533 4 10.5506 4 10.548C4 10.5453 4 10.5426 4 10.54C4 10.5373 4 10.5347 4 10.532C4 10.5294 4 10.5267 4 10.5241C4 10.5215 4 10.5188 4 10.5162C4 10.5136 4 10.511 4 10.5084C4 10.5058 4 10.5032 4 10.5006C4 10.498 4 10.4954 4 10.4929C4 10.4903 4 10.4877 4 10.4852C4 10.4826 4 10.4801 4 10.4775C4 10.475 4 10.4724 4 10.4699C4 10.4674 4 10.4648 4 10.4623C4 10.4598 4 10.4573 4 10.4548C4 10.4523 4 10.4498 4 10.4473C4 10.4448 4 10.4423 4 10.4398C4 10.4374 4 10.4349 4 10.4324C4 10.43 4 10.4275 4 10.4251C4 10.4226 4 10.4202 4 10.4178C4 10.4153 4 10.4129 4 10.4105C4 10.4081 4 10.4057 4 10.4033C4 10.4008 4 10.3985 4 10.3961C4 10.3937 4 10.3913 4 10.3889C4 10.3865 4 10.3842 4 10.3818C4 10.3795 4 10.3771 4 10.3748C4 10.3724 4 10.3701 4 10.3677C4 10.3654 4 10.3631 4 10.3608C4 10.3585 4 10.3561 4 10.3538C4 10.3515 4 10.3493 4 10.347C4 10.3447 4 10.3424 4 10.3401C4 10.3379 4 10.3356 4 10.3333H2C2 10.3356 2 10.3379 2 10.3401C2 10.3424 2 10.3447 2 10.347C2 10.3493 2 10.3515 2 10.3538C2 10.3561 2 10.3585 2 10.3608C2 10.3631 2 10.3654 2 10.3677C2 10.3701 2 10.3724 2 10.3748C2 10.3771 2 10.3795 2 10.3818C2 10.3842 2 10.3865 2 10.3889C2 10.3913 2 10.3937 2 10.3961C2 10.3985 2 10.4008 2 10.4033C2 10.4057 2 10.4081 2 10.4105C2 10.4129 2 10.4153 2 10.4178C2 10.4202 2 10.4226 2 10.4251C2 10.4275 2 10.43 2 10.4324C2 10.4349 2 10.4374 2 10.4398C2 10.4423 2 10.4448 2 10.4473C2 10.4498 2 10.4523 2 10.4548C2 10.4573 2 10.4598 2 10.4623C2 10.4648 2 10.4674 2 10.4699C2 10.4724 2 10.475 2 10.4775C2 10.4801 2 10.4826 2 10.4852C2 10.4877 2 10.4903 2 10.4929C2 10.4954 2 10.498 2 10.5006C2 10.5032 2 10.5058 2 10.5084C2 10.511 2 10.5136 2 10.5162C2 10.5188 2 10.5215 2 10.5241C2 10.5267 2 10.5294 2 10.532C2 10.5347 2 10.5373 2 10.54C2 10.5426 2 10.5453 2 10.548C2 10.5506 2 10.5533 2 10.556C2 10.5587 2 10.5614 2 10.5641C2 10.5668 2 10.5695 2 10.5722C2 10.5749 2 10.5776 2 10.5803C2 10.5831 2 10.5858 2 10.5885C2 10.5913 2 10.594 2 10.5968C2 10.5995 2 10.6023 2 10.6051C2 10.6078 2 10.6106 2 10.6134C2 10.6162 2 10.6189 2 10.6217C2 10.6245 2 10.6273 2 10.6301C2 10.6329 2 10.6358 2 10.6386C2 10.6414 2 10.6442 2 10.6471C2 10.6499 2 10.6527 2 10.6556C2 10.6584 2 10.6613 2 10.6641C2 10.667 2 10.6699 2 10.6727C2 10.6756 2 10.6785 2 10.6814C2 10.6843 2 10.6872 2 10.69C2 10.6929 2 10.6959 2 10.6988C2 10.7017 2 10.7046 2 10.7075C2 10.7104 2 10.7134 2 10.7163C2 10.7193 2 10.7222 2 10.7251C2 10.7281 2 10.7311 2 10.734C2 10.737 2 10.74 2 10.7429C2 10.7459 2 10.7489 2 10.7519C2 10.7549 2 10.7579 2 10.7609C2 10.7639 2 10.7669 2 10.7699C2 10.7729 2 10.7759 2 10.779C2 10.782 2 10.785 2 10.7881C2 10.7911 2 10.7941 2 10.7972C2 10.8002 2 10.8033 2 10.8064C2 10.8094 2 10.8125 2 10.8156C2 10.8187 2 10.8218 2 10.8248C2 10.8279 2 10.831 2 10.8341C2 10.8372 2 10.8403 2 10.8435C2 10.8466 2 10.8497 2 10.8528C2 10.8559 2 10.8591 2 10.8622C2 10.8654 2 10.8685 2 10.8717C2 10.8748 2 10.878 2 10.8811C2 10.8843 2 10.8875 2 10.8906C2 10.8938 2 10.897 2 10.9002C2 10.9034 2 10.9066 2 10.9098C2 10.913 2 10.9162 2 10.9194C2 10.9226 2 10.9258 2 10.9291C2 10.9323 2 10.9355 2 10.9387C2 10.942 2 10.9452 2 10.9485C2 10.9517 2 10.955 2 10.9582C2 10.9615 2 10.9648 2 10.968C2 10.9713 2 10.9746 2 10.9779C2 10.9812 2 10.9845 2 10.9877C2 10.991 2 10.9943 2 10.9977C2 11.001 2 11.0043 2 11.0076C2 11.0109 2 11.0142 2 11.0176C2 11.0209 2 11.0242 2 11.0276C2 11.0309 2 11.0343 2 11.0376C2 11.041 2 11.0444 2 11.0477C2 11.0511 2 11.0545 2 11.0578C2 11.0612 2 11.0646 2 11.068C2 11.0714 2 11.0748 2 11.0782C2 11.0816 2 11.085 2 11.0884C2 11.0918 2 11.0952 2 11.0986C2 11.1021 2 11.1055 2 11.1089C2 11.1124 2 11.1158 2 11.1193C2 11.1227 2 11.1262 2 11.1296C2 11.1331 2 11.1365 2 11.14C2 11.1435 2 11.1469 2 11.1504C2 11.1539 2 11.1574 2 11.1609C2 11.1644 2 11.1679 2 11.1714C2 11.1749 2 11.1784 2 11.1819C2 11.1854 2 11.1889 2 11.1925C2 11.196 2 11.1995 2 11.203C2 11.2066 2 11.2101 2 11.2137C2 11.2172 2 11.2208 2 11.2243C2 11.2279 2 11.2314 2 11.235C2 11.2386 2 11.2421 2 11.2457C2 11.2493 2 11.2529 2 11.2565C2 11.2601 2 11.2637 2 11.2673C2 11.2709 2 11.2745 2 11.2781C2 11.2817 2 11.2853 2 11.2889C2 11.2926 2 11.2962 2 11.2998C2 11.3034 2 11.3071 2 11.3107C2 11.3144 2 11.318 2 11.3217C2 11.3253 2 11.329 2 11.3326C2 11.3363 2 11.34 2 11.3437C2 11.3473 2 11.351 2 11.3547C2 11.3584 2 11.3621 2 11.3658C2 11.3695 2 11.3732 2 11.3769C2 11.3806 2 11.3843 2 11.388C2 11.3917 2 11.3954 2 11.3992C2 11.4029 2 11.4066 2 11.4104C2 11.4141 2 11.4178 2 11.4216C2 11.4253 2 11.4291 2 11.4328C2 11.4366 2 11.4404 2 11.4441C2 11.4479 2 11.4517 2 11.4554C2 11.4592 2 11.463 2 11.4668C2 11.4706 2 11.4744 2 11.4782C2 11.482 2 11.4858 2 11.4896C2 11.4934 2 11.4972 2 11.501C2 11.5048 2 11.5086 2 11.5125C2 11.5163 2 11.5201 2 11.524C2 11.5278 2 11.5316 2 11.5355C2 11.5393 2 11.5432 2 11.547C2 11.5509 2 11.5548 2 11.5586C2 11.5625 2 11.5664 2 11.5702C2 11.5741 2 11.578 2 11.5819C2 11.5858 2 11.5896 2 11.5935C2 11.5974 2 11.6013 2 11.6052C2 11.6091 2 11.6131 2 11.617C2 11.6209 2 11.6248 2 11.6287C2 11.6326 2 11.6366 2 11.6405C2 11.6444 2 11.6484 2 11.6523C2 11.6563 2 11.6602 2 11.6642C2 11.6681 2 11.6721 2 11.676C2 11.68 2 11.684 2 11.6879C2 11.6919 2 11.6959 2 11.6999C2 11.7038 2 11.7078 2 11.7118C2 11.7158 2 11.7198 2 11.7238C2 11.7278 2 11.7318 2 11.7358C2 11.7398 2 11.7438 2 11.7478C2 11.7518 2 11.7559 2 11.7599C2 11.7639 2 11.7679 2 11.772C2 11.776 2 11.7801 2 11.7841C2 11.7881 2 11.7922 2 11.7962C2 11.8003 2 11.8043 2 11.8084C2 11.8125 2 11.8165 2 11.8206C2 11.8247 2 11.8287 2 11.8328C2 11.8369 2 11.841 2 11.8451C2 11.8492 2 11.8533 2 11.8573C2 11.8614 2 11.8655 2 11.8697C2 11.8738 2 11.8779 2 11.882C2 11.8861 2 11.8902 2 11.8943C2 11.8985 2 11.9026 2 11.9067C2 11.9108 2 11.915 2 11.9191C2 11.9233 2 11.9274 2 11.9315C2 11.9357 2 11.9398 2 11.944C2 11.9482 2 11.9523 2 11.9565C2 11.9606 2 11.9648 2 11.969C2 11.9732 2 11.9773 2 11.9815C2 11.9857 2 11.9899 2 11.9941C2 11.9983 2 12.0025 2 12.0067C2 12.0109 2 12.0151 2 12.0193C2 12.0235 2 12.0277 2 12.0319C2 12.0361 2 12.0403 2 12.0445C2 12.0488 2 12.053 2 12.0572C2 12.0615 2 12.0657 2 12.0699C2 12.0742 2 12.0784 2 12.0827C2 12.0869 2 12.0912 2 12.0954C2 12.0997 2 12.1039 2 12.1082C2 12.1125 2 12.1167 2 12.121C2 12.1253 2 12.1295 2 12.1338C2 12.1381 2 12.1424 2 12.1467C2 12.1509 2 12.1552 2 12.1595C2 12.1638 2 12.1681 2 12.1724C2 12.1767 2 12.181 2 12.1853C2 12.1896 2 12.194 2 12.1983C2 12.2026 2 12.2069 2 12.2112C2 12.2156 2 12.2199 2 12.2242C2 12.2286 2 12.2329 2 12.2372C2 12.2416 2 12.2459 2 12.2503C2 12.2546 2 12.259 2 12.2633C2 12.2677 2 12.272 2 12.2764C2 12.2808 2 12.2851 2 12.2895C2 12.2939 2 12.2982 2 12.3026C2 12.307 2 12.3114 2 12.3158C2 12.3201 2 12.3245 2 12.3289C2 12.3333 2 12.3377 2 12.3421C2 12.3465 2 12.3509 2 12.3553C2 12.3597 2 12.3641 2 12.3685C2 12.373 2 12.3774 2 12.3818C2 12.3862 2 12.3906 2 12.3951C2 12.3995 2 12.4039 2 12.4084C2 12.4128 2 12.4172 2 12.4217C2 12.4261 2 12.4306 2 12.435C2 12.4395 2 12.4439 2 12.4484C2 12.4528 2 12.4573 2 12.4617C2 12.4662 2 12.4707 2 12.4751C2 12.4796 2 12.4841 2 12.4886C2 12.493 2 12.4975 2 12.502C2 12.5065 2 12.511 2 12.5154C2 12.5199 2 12.5244 2 12.5289C2 12.5334 2 12.5379 2 12.5424C2 12.5469 2 12.5514 2 12.5559C2 12.5605 2 12.565 2 12.5695C2 12.574 2 12.5785 2 12.583C2 12.5876 2 12.5921 2 12.5966C2 12.6011 2 12.6057 2 12.6102C2 12.6147 2 12.6193 2 12.6238C2 12.6284 2 12.6329 2 12.6375C2 12.642 2 12.6466 2 12.6511C2 12.6557 2 12.6602 2 12.6648C2 12.6693 2 12.6739 2 12.6785C2 12.683 2 12.6876 2 12.6922C2 12.6968 2 12.7013 2 12.7059C2 12.7105 2 12.7151 2 12.7197C2 12.7243 2 12.7288 2 12.7334C2 12.738 2 12.7426 2 12.7472C2 12.7518 2 12.7564 2 12.761C2 12.7656 2 12.7702 2 12.7748C2 12.7794 2 12.7841 2 12.7887C2 12.7933 2 12.7979 2 12.8025C2 12.8072 2 12.8118 2 12.8164C2 12.821 2 12.8257 2 12.8303C2 12.8349 2 12.8396 2 12.8442C2 12.8488 2 12.8535 2 12.8581C2 12.8628 2 12.8674 2 12.8721C2 12.8767 2 12.8814 2 12.886C2 12.8907 2 12.8953 2 12.9C2 12.9047 2 12.9093 2 12.914C2 12.9187 2 12.9233 2 12.928C2 12.9327 2 12.9374 2 12.942C2 12.9467 2 12.9514 2 12.9561C2 12.9608 2 12.9655 2 12.9701C2 12.9748 2 12.9795 2 12.9842C2 12.9889 2 12.9936 2 12.9983C2 13.003 2 13.0077 2 13.0124C2 13.0171 2 13.0218 2 13.0265C2 13.0313 2 13.036 2 13.0407C2 13.0454 2 13.0501 2 13.0548C2 13.0596 2 13.0643 2 13.069C2 13.0737 2 13.0785 2 13.0832C2 13.0879 2 13.0927 2 13.0974C2 13.1021 2 13.1069 2 13.1116C2 13.1164 2 13.1211 2 13.1258C2 13.1306 2 13.1353 2 13.1401C2 13.1448 2 13.1496 2 13.1544C2 13.1591 2 13.1639 2 13.1686C2 13.1734 2 13.1782 2 13.1829C2 13.1877 2 13.1925 2 13.1972C2 13.202 2 13.2068 2 13.2115C2 13.2163 2 13.2211 2 13.2259C2 13.2307 2 13.2354 2 13.2402C2 13.245 2 13.2498 2 13.2546C2 13.2594 2 13.2642 2 13.269C2 13.2738 2 13.2785 2 13.2833C2 13.2881 2 13.2929 2 13.2978C2 13.3026 2 13.3074 2 13.3122C2 13.317 2 13.3218 2 13.3266C2 13.3314 2 13.3362 2 13.341C2 13.3459 2 13.3507 2 13.3555C2 13.3603 2 13.3651 2 13.37C2 13.3748 2 13.3796 2 13.3844C2 13.3893 2 13.3941 2 13.3989C2 13.4038 2 13.4086 2 13.4134C2 13.4183 2 13.4231 2 13.428C2 13.4328 2 13.4377 2 13.4425C2 13.4473 2 13.4522 2 13.457C2 13.4619 2 13.4667 2 13.4716C2 13.4765 2 13.4813 2 13.4862C2 13.491 2 13.4959 2 13.5008C2 13.5056 2 13.5105 2 13.5153C2 13.5202 2 13.5251 2 13.5299C2 13.5348 2 13.5397 2 13.5446C2 13.5494 2 13.5543 2 13.5592C2 13.5641 2 13.569 2 13.5738C2 13.5787 2 13.5836 2 13.5885C2 13.5934 2 13.5983 2 13.6031C2 13.608 2 13.6129 2 13.6178C2 13.6227 2 13.6276 2 13.6325C2 13.6374 2 13.6423 2 13.6472C2 13.6521 2 13.657 2 13.6619C2 13.6668 2 13.6717 2 13.6766C2 13.6815 2 13.6864 2 13.6913C2 13.6962 2 13.7012 2 13.7061C2 13.711 2 13.7159 2 13.7208C2 13.7257 2 13.7307 2 13.7356C2 13.7405 2 13.7454 2 13.7503C2 13.7553 2 13.7602 2 13.7651C2 13.77 2 13.775 2 13.7799C2 13.7848 2 13.7898 2 13.7947C2 13.7996 2 13.8046 2 13.8095C2 13.8144 2 13.8194 2 13.8243C2 13.8293 2 13.8342 2 13.8391C2 13.8441 2 13.849 2 13.854C2 13.8589 2 13.8639 2 13.8688C2 13.8738 2 13.8787 2 13.8837C2 13.8886 2 13.8936 2 13.8985C2 13.9035 2 13.9084 2 13.9134C2 13.9184 2 13.9233 2 13.9283C2 13.9332 2 13.9382 2 13.9432C2 13.9481 2 13.9531 2 13.958C2 13.963 2 13.968 2 13.9729C2 13.9779 2 13.9829 2 13.9879C2 13.9928 2 13.9978 2 14.0028C2 14.0078 2 14.0127 2 14.0177C2 14.0227 2 14.0277 2 14.0326C2 14.0376 2 14.0426 2 14.0476C2 14.0526 2 14.0575 2 14.0625C2 14.0675 2 14.0725 2 14.0775C2 14.0825 2 14.0875 2 14.0924C2 14.0974 2 14.1024 2 14.1074C2 14.1124 2 14.1174 2 14.1224C2 14.1274 2 14.1324 2 14.1374C2 14.1424 2 14.1474 2 14.1524C2 14.1574 2 14.1624 2 14.1674C2 14.1724 2 14.1774 2 14.1824C2 14.1874 2 14.1924 2 14.1974C2 14.2024 2 14.2074 2 14.2124C2 14.2174 2 14.2224 2 14.2274C2 14.2324 2 14.2374 2 14.2424C2 14.2474 2 14.2525 2 14.2575C2 14.2625 2 14.2675 2 14.2725C2 14.2775 2 14.2825 2 14.2876C2 14.2926 2 14.2976 2 14.3026C2 14.3076 2 14.3126 2 14.3177C2 14.3227 2 14.3277 2 14.3327C2 14.3377 2 14.3428 2 14.3478C2 14.3528 2 14.3578 2 14.3629C2 14.3679 2 14.3729 2 14.3779C2 14.383 2 14.388 2 14.393C2 14.3981 2 14.4031 2 14.4081C2 14.4131 2 14.4182 2 14.4232C2 14.4282 2 14.4333 2 14.4383C2 14.4433 2 14.4484 2 14.4534C2 14.4584 2 14.4635 2 14.4685C2 14.4735 2 14.4786 2 14.4836C2 14.4887 2 14.4937 2 14.4987C2 14.5038 2 14.5088 2 14.5138C2 14.5189 2 14.5239 2 14.529C2 14.534 2 14.539 2 14.5441C2 14.5491 2 14.5542 2 14.5592C2 14.5643 2 14.5693 2 14.5744C2 14.5794 2 14.5844 2 14.5895C2 14.5945 2 14.5996 2 14.6046C2 14.6097 2 14.6147 2 14.6198C2 14.6248 2 14.6299 2 14.6349C2 14.64 2 14.645 2 14.6501C2 14.6551 2 14.6602 2 14.6652C2 14.6703 2 14.6753 2 14.6804C2 14.6854 2 14.6905 2 14.6955C2 14.7006 2 14.7056 2 14.7107C2 14.7157 2 14.7208 2 14.7258C2 14.7309 2 14.7359 2 14.741C2 14.746 2 14.7511 2 14.7562C2 14.7612 2 14.7663 2 14.7713C2 14.7764 2 14.7814 2 14.7865C2 14.7915 2 14.7966 2 14.8017C2 14.8067 2 14.8118 2 14.8168C2 14.8219 2 14.8269 2 14.832C2 14.8371 2 14.8421 2 14.8472C2 14.8522 2 14.8573 2 14.8623C2 14.8674 2 14.8725 2 14.8775C2 14.8826 2 14.8876 2 14.8927C2 14.8978 2 14.9028 2 14.9079C2 14.9129 2 14.918 2 14.9231C2 14.9281 2 14.9332 2 14.9382C2 14.9433 2 14.9484 2 14.9534C2 14.9585 2 14.9635 2 14.9686C2 14.9737 2 14.9787 2 14.9838C2 14.9888 2 14.9939 2 14.999C2 15.004 2 15.0091 2 15.0141C2 15.0192 2 15.0243 2 15.0293C2 15.0344 2 15.0394 2 15.0445C2 15.0496 2 15.0546 2 15.0597C2 15.0647 2 15.0698 2 15.0749C2 15.0799 2 15.085 2 15.09C2 15.0951 2 15.1001 2 15.1052C2 15.1103 2 15.1153 2 15.1204C2 15.1254 2 15.1305 2 15.1356C2 15.1406 2 15.1457 2 15.1507C2 15.1558 2 15.1609 2 15.1659C2 15.171 2 15.176 2 15.1811C2 15.1861 2 15.1912 2 15.1963C2 15.2013 2 15.2064 2 15.2114C2 15.2165 2 15.2215 2 15.2266C2 15.2316 2 15.2367 2 15.2418C2 15.2468 2 15.2519 2 15.2569C2 15.262 2 15.267 2 15.2721C2 15.2771 2 15.2822 2 15.2872C2 15.2923 2 15.2974 2 15.3024C2 15.3075 2 15.3125 2 15.3176C2 15.3226 2 15.3277 2 15.3327C2 15.3378 2 15.3428 2 15.3479C2 15.3529 2 15.358 2 15.363C2 15.3681 2 15.3731 2 15.3782C2 15.3832 2 15.3883 2 15.3933C2 15.3983 2 15.4034 2 15.4084C2 15.4135 2 15.4185 2 15.4236C2 15.4286 2 15.4337 2 15.4387C2 15.4438 2 15.4488 2 15.4538C2 15.4589 2 15.4639 2 15.469C2 15.474 2 15.479 2 15.4841C2 15.4891 2 15.4942 2 15.4992C2 15.5042 2 15.5093 2 15.5143C2 15.5194 2 15.5244 2 15.5294C2 15.5345 2 15.5395 2 15.5445C2 15.5496 2 15.5546 2 15.5596C2 15.5647 2 15.5697 2 15.5747C2 15.5798 2 15.5848 2 15.5898C2 15.5949 2 15.5999 2 15.6049C2 15.6099 2 15.615 2 15.62C2 15.625 2 15.6301 2 15.6351C2 15.6401 2 15.6451 2 15.6502C2 15.6552 2 15.6602 2 15.6652C2 15.6702 2 15.6753 2 15.6803C2 15.6853 2 15.6903 2 15.6953C2 15.7004 2 15.7054 2 15.7104C2 15.7154 2 15.7204 2 15.7254C2 15.7305 2 15.7355 2 15.7405C2 15.7455 2 15.7505 2 15.7555C2 15.7605 2 15.7655 2 15.7706C2 15.7756 2 15.7806 2 15.7856C2 15.7906 2 15.7956 2 15.8006C2 15.8056 2 15.8106 2 15.8156C2 15.8206 2 15.8256 2 15.8306C2 15.8356 2 15.8406 2 15.8456C2 15.8506 2 15.8556 2 15.8606C2 15.8656 2 15.8706 2 15.8756C2 15.8806 2 15.8856 2 15.8906C2 15.8956 2 15.9006 2 15.9055C2 15.9105 2 15.9155 2 15.9205C2 15.9255 2 15.9305 2 15.9355C2 15.9405 2 15.9454 2 15.9504C2 15.9554 2 15.9604 2 15.9654C2 15.9703 2 15.9753 2 15.9803C2 15.9853 2 15.9903 2 15.9952C2 16.0002 2 16.0052 2 16.0101C2 16.0151 2 16.0201 2 16.0251C2 16.03 2 16.035 2 16.04C2 16.0449 2 16.0499 2 16.0549C2 16.0598 2 16.0648 2 16.0697C2 16.0747 2 16.0797 2 16.0846C2 16.0896 2 16.0945 2 16.0995C2 16.1045 2 16.1094 2 16.1144C2 16.1193 2 16.1243 2 16.1292C2 16.1342 2 16.1391 2 16.1441C2 16.149 2 16.154 2 16.1589C2 16.1638 2 16.1688 2 16.1737C2 16.1787 2 16.1836 2 16.1885C2 16.1935 2 16.1984 2 16.2033C2 16.2083 2 16.2132 2 16.2181C2 16.2231 2 16.228 2 16.2329C2 16.2379 2 16.2428 2 16.2477C2 16.2526 2 16.2576 2 16.2625C2 16.2674 2 16.2723 2 16.2772C2 16.2822 2 16.2871 2 16.292C2 16.2969 2 16.3018 2 16.3067C2 16.3116 2 16.3166 2 16.3215C2 16.3264 2 16.3313 2 16.3362C2 16.3411 2 16.346 2 16.3509C2 16.3558 2 16.3607 2 16.3656C2 16.3705 2 16.3754 2 16.3803C2 16.3852 2 16.3901 2 16.395C2 16.3998 2 16.4047 2 16.4096C2 16.4145 2 16.4194 2 16.4243C2 16.4292 2 16.434 2 16.4389C2 16.4438 2 16.4487 2 16.4536C2 16.4584 2 16.4633 2 16.4682C2 16.473 2 16.4779 2 16.4828C2 16.4876 2 16.4925 2 16.4974C2 16.5022 2 16.5071 2 16.512C2 16.5168 2 16.5217 2 16.5265C2 16.5314 2 16.5362 2 16.5411C2 16.5459 2 16.5508 2 16.5556C2 16.5605 2 16.5653 2 16.5702C2 16.575 2 16.5799 2 16.5847C2 16.5895 2 16.5944 2 16.5992C2 16.6041 2 16.6089 2 16.6137C2 16.6186 2 16.6234 2 16.6282C2 16.633 2 16.6379 2 16.6427C2 16.6475 2 16.6523 2 16.6571C2 16.662 2 16.6668 2 16.6716C2 16.6764 2 16.6812 2 16.686C2 16.6908 2 16.6956 2 16.7004C2 16.7052 2 16.7101 2 16.7149C2 16.7197 2 16.7245 2 16.7292C2 16.734 2 16.7388 2 16.7436C2 16.7484 2 16.7532 2 16.758C2 16.7628 2 16.7676 2 16.7723C2 16.7771 2 16.7819 2 16.7867C2 16.7915 2 16.7962 2 16.801C2 16.8058 2 16.8106 2 16.8153C2 16.8201 2 16.8249 2 16.8296C2 16.8344 2 16.8391 2 16.8439C2 16.8487 2 16.8534 2 16.8582C2 16.8629 2 16.8677 2 16.8724C2 16.8772 2 16.8819 2 16.8867C2 16.8914 2 16.8961 2 16.9009C2 16.9056 2 16.9103 2 16.9151C2 16.9198 2 16.9245 2 16.9293C2 16.934 2 16.9387 2 16.9434C2 16.9482 2 16.9529 2 16.9576C2 16.9623 2 16.967 2 16.9718C2 16.9765 2 16.9812 2 16.9859C2 16.9906 2 16.9953 2 17H4ZM4 10.3333C4 9.5496 4.01339 9.21189 4.10476 8.96443C4.16011 8.81454 4.2755 8.61305 4.80962 8.32374L3.85705 6.56515C3.05783 6.99806 2.50656 7.51879 2.22857 8.27168C1.98661 8.927 2 9.67263 2 10.3333H4ZM4.80962 8.32374C5.87628 7.74596 7.03184 7.12003 7.47628 6.87929L6.52372 5.12071C6.07927 5.36145 4.92372 5.98737 3.85705 6.56515L4.80962 8.32374ZM6 6V17H8V6H6Z" fill="#8A8DBA"/>
<path d="M8 17V2.49371H6V17H8ZM7.99993 2.49368C8.77184 2.81181 9.71661 3.20117 10.619 3.57305L11.381 1.72392C10.4787 1.35204 9.53391 0.962684 8.76199 0.64456L7.99993 2.49368ZM10.619 3.57305C11.8166 4.06663 12 4.94592 12 5.12121H14C14 4.19752 13.3834 2.54913 11.381 1.72392L10.619 3.57305ZM12 5.12121V17H14V5.12121H12ZM8 2.49371L7.99993 2.49368L8.76199 0.64456C7.44546 0.101988 6 1.07001 6 2.49371H8Z" fill="#8A8DBA"/>
<path d="M15.6667 9.88889L15.9829 8.94021L15.6667 9.88889ZM13 9H12V7.61257L13.3162 8.05132L13 9ZM16 17C16 16.9971 16 16.9942 16 16.9913C16 16.9884 16 16.9855 16 16.9826C16 16.9796 16 16.9767 16 16.9738C16 16.9709 16 16.9679 16 16.965C16 16.962 16 16.9591 16 16.9561C16 16.9532 16 16.9502 16 16.9472C16 16.9443 16 16.9413 16 16.9383C16 16.9353 16 16.9323 16 16.9294C16 16.9264 16 16.9234 16 16.9204C16 16.9174 16 16.9143 16 16.9113C16 16.9083 16 16.9053 16 16.9023C16 16.8992 16 16.8962 16 16.8932C16 16.8901 16 16.8871 16 16.884C16 16.881 16 16.8779 16 16.8748C16 16.8718 16 16.8687 16 16.8656C16 16.8625 16 16.8595 16 16.8564C16 16.8533 16 16.8502 16 16.8471C16 16.844 16 16.8409 16 16.8378C16 16.8347 16 16.8315 16 16.8284C16 16.8253 16 16.8222 16 16.819C16 16.8159 16 16.8128 16 16.8096C16 16.8065 16 16.8033 16 16.8002C16 16.797 16 16.7938 16 16.7907C16 16.7875 16 16.7843 16 16.7812C16 16.778 16 16.7748 16 16.7716C16 16.7684 16 16.7652 16 16.762C16 16.7588 16 16.7556 16 16.7524C16 16.7492 16 16.746 16 16.7427C16 16.7395 16 16.7363 16 16.733C16 16.7298 16 16.7266 16 16.7233C16 16.7201 16 16.7168 16 16.7136C16 16.7103 16 16.707 16 16.7038C16 16.7005 16 16.6972 16 16.694C16 16.6907 16 16.6874 16 16.6841C16 16.6808 16 16.6775 16 16.6742C16 16.6709 16 16.6676 16 16.6643C16 16.661 16 16.6577 16 16.6544C16 16.651 16 16.6477 16 16.6444C16 16.6411 16 16.6377 16 16.6344C16 16.631 16 16.6277 16 16.6243C16 16.621 16 16.6176 16 16.6143C16 16.6109 16 16.6075 16 16.6042C16 16.6008 16 16.5974 16 16.594C16 16.5907 16 16.5873 16 16.5839C16 16.5805 16 16.5771 16 16.5737C16 16.5703 16 16.5669 16 16.5635C16 16.5601 16 16.5567 16 16.5532C16 16.5498 16 16.5464 16 16.543C16 16.5395 16 16.5361 16 16.5326C16 16.5292 16 16.5258 16 16.5223C16 16.5189 16 16.5154 16 16.5119C16 16.5085 16 16.505 16 16.5015C16 16.4981 16 16.4946 16 16.4911C16 16.4876 16 16.4842 16 16.4807C16 16.4772 16 16.4737 16 16.4702C16 16.4667 16 16.4632 16 16.4597C16 16.4562 16 16.4527 16 16.4492C16 16.4456 16 16.4421 16 16.4386C16 16.4351 16 16.4315 16 16.428C16 16.4245 16 16.4209 16 16.4174C16 16.4138 16 16.4103 16 16.4067C16 16.4032 16 16.3996 16 16.3961C16 16.3925 16 16.3889 16 16.3854C16 16.3818 16 16.3782 16 16.3747C16 16.3711 16 16.3675 16 16.3639C16 16.3603 16 16.3567 16 16.3531C16 16.3495 16 16.3459 16 16.3423C16 16.3387 16 16.3351 16 16.3315C16 16.3279 16 16.3243 16 16.3206C16 16.317 16 16.3134 16 16.3098C16 16.3061 16 16.3025 16 16.2989C16 16.2952 16 16.2916 16 16.2879C16 16.2843 16 16.2806 16 16.277C16 16.2733 16 16.2697 16 16.266C16 16.2623 16 16.2587 16 16.255C16 16.2513 16 16.2477 16 16.244C16 16.2403 16 16.2366 16 16.2329C16 16.2292 16 16.2255 16 16.2218C16 16.2182 16 16.2145 16 16.2107C16 16.207 16 16.2033 16 16.1996C16 16.1959 16 16.1922 16 16.1885C16 16.1848 16 16.181 16 16.1773C16 16.1736 16 16.1699 16 16.1661C16 16.1624 16 16.1586 16 16.1549C16 16.1512 16 16.1474 16 16.1437C16 16.1399 16 16.1362 16 16.1324C16 16.1287 16 16.1249 16 16.1211C16 16.1174 16 16.1136 16 16.1098C16 16.1061 16 16.1023 16 16.0985C16 16.0947 16 16.0909 16 16.0872C16 16.0834 16 16.0796 16 16.0758C16 16.072 16 16.0682 16 16.0644C16 16.0606 16 16.0568 16 16.053C16 16.0492 16 16.0454 16 16.0415C16 16.0377 16 16.0339 16 16.0301C16 16.0263 16 16.0224 16 16.0186C16 16.0148 16 16.011 16 16.0071C16 16.0033 16 15.9995 16 15.9956C16 15.9918 16 15.9879 16 15.9841C16 15.9802 16 15.9764 16 15.9725C16 15.9687 16 15.9648 16 15.9609C16 15.9571 16 15.9532 16 15.9494C16 15.9455 16 15.9416 16 15.9377C16 15.9339 16 15.93 16 15.9261C16 15.9222 16 15.9183 16 15.9145C16 15.9106 16 15.9067 16 15.9028C16 15.8989 16 15.895 16 15.8911C16 15.8872 16 15.8833 16 15.8794C16 15.8755 16 15.8716 16 15.8677C16 15.8638 16 15.8598 16 15.8559C16 15.852 16 15.8481 16 15.8442C16 15.8402 16 15.8363 16 15.8324C16 15.8285 16 15.8245 16 15.8206C16 15.8167 16 15.8127 16 15.8088C16 15.8048 16 15.8009 16 15.7969C16 15.793 16 15.789 16 15.7851C16 15.7811 16 15.7772 16 15.7732C16 15.7693 16 15.7653 16 15.7613C16 15.7574 16 15.7534 16 15.7495C16 15.7455 16 15.7415 16 15.7375C16 15.7336 16 15.7296 16 15.7256C16 15.7216 16 15.7176 16 15.7137C16 15.7097 16 15.7057 16 15.7017C16 15.6977 16 15.6937 16 15.6897C16 15.6857 16 15.6817 16 15.6777C16 15.6737 16 15.6697 16 15.6657C16 15.6617 16 15.6577 16 15.6537C16 15.6497 16 15.6457 16 15.6417C16 15.6377 16 15.6336 16 15.6296C16 15.6256 16 15.6216 16 15.6175C16 15.6135 16 15.6095 16 15.6055C16 15.6014 16 15.5974 16 15.5934C16 15.5893 16 15.5853 16 15.5813C16 15.5772 16 15.5732 16 15.5691C16 15.5651 16 15.5611 16 15.557C16 15.553 16 15.5489 16 15.5449C16 15.5408 16 15.5368 16 15.5327C16 15.5286 16 15.5246 16 15.5205C16 15.5165 16 15.5124 16 15.5083C16 15.5043 16 15.5002 16 15.4961C16 15.4921 16 15.488 16 15.4839C16 15.4799 16 15.4758 16 15.4717C16 15.4676 16 15.4635 16 15.4595C16 15.4554 16 15.4513 16 15.4472C16 15.4431 16 15.439 16 15.435C16 15.4309 16 15.4268 16 15.4227C16 15.4186 16 15.4145 16 15.4104C16 15.4063 16 15.4022 16 15.3981C16 15.394 16 15.3899 16 15.3858C16 15.3817 16 15.3776 16 15.3735C16 15.3694 16 15.3653 16 15.3612C16 15.3571 16 15.3529 16 15.3488C16 15.3447 16 15.3406 16 15.3365C16 15.3324 16 15.3282 16 15.3241C16 15.32 16 15.3159 16 15.3118C16 15.3076 16 15.3035 16 15.2994C16 15.2953 16 15.2911 16 15.287C16 15.2829 16 15.2787 16 15.2746C16 15.2705 16 15.2663 16 15.2622C16 15.2581 16 15.2539 16 15.2498C16 15.2456 16 15.2415 16 15.2374C16 15.2332 16 15.2291 16 15.2249C16 15.2208 16 15.2166 16 15.2125C16 15.2083 16 15.2042 16 15.2C16 15.1959 16 15.1917 16 15.1876C16 15.1834 16 15.1793 16 15.1751C16 15.171 16 15.1668 16 15.1627C16 15.1585 16 15.1543 16 15.1502C16 15.146 16 15.1419 16 15.1377C16 15.1335 16 15.1294 16 15.1252C16 15.121 16 15.1169 16 15.1127C16 15.1085 16 15.1044 16 15.1002C16 15.096 16 15.0919 16 15.0877C16 15.0835 16 15.0793 16 15.0752C16 15.071 16 15.0668 16 15.0626C16 15.0585 16 15.0543 16 15.0501C16 15.0459 16 15.0418 16 15.0376C16 15.0334 16 15.0292 16 15.025C16 15.0209 16 15.0167 16 15.0125C16 15.0083 16 15.0041 16 14.9999C16 14.9957 16 14.9916 16 14.9874C16 14.9832 16 14.979 16 14.9748C16 14.9706 16 14.9664 16 14.9622C16 14.9581 16 14.9539 16 14.9497C16 14.9455 16 14.9413 16 14.9371C16 14.9329 16 14.9287 16 14.9245C16 14.9203 16 14.9161 16 14.9119C16 14.9077 16 14.9035 16 14.8993C16 14.8951 16 14.891 16 14.8868C16 14.8826 16 14.8784 16 14.8742C16 14.87 16 14.8658 16 14.8616C16 14.8574 16 14.8532 16 14.849C16 14.8448 16 14.8406 16 14.8364C16 14.8322 16 14.8279 16 14.8237C16 14.8195 16 14.8153 16 14.8111C16 14.8069 16 14.8027 16 14.7985C16 14.7943 16 14.7901 16 14.7859C16 14.7817 16 14.7775 16 14.7733C16 14.7691 16 14.7649 16 14.7607C16 14.7565 16 14.7523 16 14.7481C16 14.7439 16 14.7396 16 14.7354C16 14.7312 16 14.727 16 14.7228C16 14.7186 16 14.7144 16 14.7102C16 14.706 16 14.7018 16 14.6976C16 14.6934 16 14.6891 16 14.6849C16 14.6807 16 14.6765 16 14.6723C16 14.6681 16 14.6639 16 14.6597C16 14.6555 16 14.6513 16 14.6471C16 14.6429 16 14.6386 16 14.6344C16 14.6302 16 14.626 16 14.6218C16 14.6176 16 14.6134 16 14.6092C16 14.605 16 14.6008 16 14.5966C16 14.5924 16 14.5881 16 14.5839C16 14.5797 16 14.5755 16 14.5713C16 14.5671 16 14.5629 16 14.5587C16 14.5545 16 14.5503 16 14.5461C16 14.5419 16 14.5377 16 14.5335C16 14.5293 16 14.525 16 14.5208C16 14.5166 16 14.5124 16 14.5082C16 14.504 16 14.4998 16 14.4956C16 14.4914 16 14.4872 16 14.483C16 14.4788 16 14.4746 16 14.4704C16 14.4662 16 14.462 16 14.4578C16 14.4536 16 14.4494 16 14.4452C16 14.441 16 14.4368 16 14.4326C16 14.4284 16 14.4242 16 14.42C16 14.4158 16 14.4116 16 14.4074C16 14.4032 16 14.399 16 14.3948C16 14.3906 16 14.3864 16 14.3822C16 14.378 16 14.3738 16 14.3696C16 14.3654 16 14.3612 16 14.3571C16 14.3529 16 14.3487 16 14.3445C16 14.3403 16 14.3361 16 14.3319C16 14.3277 16 14.3235 16 14.3193C16 14.3152 16 14.311 16 14.3068C16 14.3026 16 14.2984 16 14.2942C16 14.29 16 14.2859 16 14.2817C16 14.2775 16 14.2733 16 14.2691C16 14.265 16 14.2608 16 14.2566C16 14.2524 16 14.2482 16 14.2441C16 14.2399 16 14.2357 16 14.2315C16 14.2274 16 14.2232 16 14.219C16 14.2148 16 14.2107 16 14.2065C16 14.2023 16 14.1982 16 14.194C16 14.1898 16 14.1856 16 14.1815C16 14.1773 16 14.1732 16 14.169C16 14.1648 16 14.1607 16 14.1565C16 14.1523 16 14.1482 16 14.144C16 14.1399 16 14.1357 16 14.1315C16 14.1274 16 14.1232 16 14.1191C16 14.1149 16 14.1108 16 14.1066C16 14.1025 16 14.0983 16 14.0942C16 14.09 16 14.0859 16 14.0817C16 14.0776 16 14.0734 16 14.0693C16 14.0651 16 14.061 16 14.0569C16 14.0527 16 14.0486 16 14.0444C16 14.0403 16 14.0362 16 14.032C16 14.0279 16 14.0238 16 14.0196C16 14.0155 16 14.0114 16 14.0072C16 14.0031 16 13.999 16 13.9949C16 13.9907 16 13.9866 16 13.9825C16 13.9784 16 13.9742 16 13.9701C16 13.966 16 13.9619 16 13.9578C16 13.9537 16 13.9495 16 13.9454C16 13.9413 16 13.9372 16 13.9331C16 13.929 16 13.9249 16 13.9208C16 13.9167 16 13.9126 16 13.9085C16 13.9044 16 13.9003 16 13.8962C16 13.8921 16 13.888 16 13.8839C16 13.8798 16 13.8757 16 13.8716C16 13.8675 16 13.8634 16 13.8593C16 13.8553 16 13.8512 16 13.8471C16 13.843 16 13.8389 16 13.8348C16 13.8308 16 13.8267 16 13.8226C16 13.8185 16 13.8145 16 13.8104C16 13.8063 16 13.8023 16 13.7982C16 13.7941 16 13.7901 16 13.786C16 13.7819 16 13.7779 16 13.7738C16 13.7698 16 13.7657 16 13.7616C16 13.7576 16 13.7535 16 13.7495C16 13.7454 16 13.7414 16 13.7373C16 13.7333 16 13.7293 16 13.7252C16 13.7212 16 13.7171 16 13.7131C16 13.7091 16 13.705 16 13.701C16 13.697 16 13.6929 16 13.6889C16 13.6849 16 13.6809 16 13.6768C16 13.6728 16 13.6688 16 13.6648C16 13.6608 16 13.6567 16 13.6527C16 13.6487 16 13.6447 16 13.6407C16 13.6367 16 13.6327 16 13.6287C16 13.6247 16 13.6207 16 13.6167C16 13.6127 16 13.6087 16 13.6047C16 13.6007 16 13.5967 16 13.5927C16 13.5887 16 13.5848 16 13.5808C16 13.5768 16 13.5728 16 13.5688C16 13.5649 16 13.5609 16 13.5569C16 13.5529 16 13.549 16 13.545C16 13.541 16 13.5371 16 13.5331C16 13.5292 16 13.5252 16 13.5212C16 13.5173 16 13.5133 16 13.5094C16 13.5054 16 13.5015 16 13.4976C16 13.4936 16 13.4897 16 13.4857C16 13.4818 16 13.4779 16 13.4739C16 13.47 16 13.4661 16 13.4621C16 13.4582 16 13.4543 16 13.4504C16 13.4464 16 13.4425 16 13.4386C16 13.4347 16 13.4308 16 13.4269C16 13.423 16 13.4191 16 13.4152C16 13.4113 16 13.4074 16 13.4035C16 13.3996 16 13.3957 16 13.3918C16 13.3879 16 13.384 16 13.3801C16 13.3762 16 13.3724 16 13.3685C16 13.3646 16 13.3607 16 13.3569C16 13.353 16 13.3491 16 13.3453C16 13.3414 16 13.3375 16 13.3337C16 13.3298 16 13.326 16 13.3221C16 13.3183 16 13.3144 16 13.3106C16 13.3067 16 13.3029 16 13.299C16 13.2952 16 13.2914 16 13.2875C16 13.2837 16 13.2799 16 13.276C16 13.2722 16 13.2684 16 13.2646C16 13.2608 16 13.2569 16 13.2531C16 13.2493 16 13.2455 16 13.2417C16 13.2379 16 13.2341 16 13.2303C16 13.2265 16 13.2227 16 13.2189C16 13.2151 16 13.2114 16 13.2076C16 13.2038 16 13.2 16 13.1962C16 13.1925 16 13.1887 16 13.1849C16 13.1811 16 13.1774 16 13.1736C16 13.1699 16 13.1661 16 13.1624C16 13.1586 16 13.1548 16 13.1511C16 13.1474 16 13.1436 16 13.1399C16 13.1361 16 13.1324 16 13.1287C16 13.1249 16 13.1212 16 13.1175C16 13.1138 16 13.11 16 13.1063C16 13.1026 16 13.0989 16 13.0952C16 13.0915 16 13.0878 16 13.0841C16 13.0804 16 13.0767 16 13.073C16 13.0693 16 13.0656 16 13.0619C16 13.0583 16 13.0546 16 13.0509C16 13.0472 16 13.0435 16 13.0399C16 13.0362 16 13.0325 16 13.0289C16 13.0252 16 13.0216 16 13.0179C16 13.0143 16 13.0106 16 13.007C16 13.0033 16 12.9997 16 12.9961C16 12.9924 16 12.9888 16 12.9852C16 12.9815 16 12.9779 16 12.9743C16 12.9707 16 12.9671 16 12.9635C16 12.9599 16 12.9562 16 12.9526C16 12.949 16 12.9454 16 12.9419C16 12.9383 16 12.9347 16 12.9311C16 12.9275 16 12.9239 16 12.9204C16 12.9168 16 12.9132 16 12.9096C16 12.9061 16 12.9025 16 12.899C16 12.8954 16 12.8918 16 12.8883C16 12.8848 16 12.8812 16 12.8777C16 12.8741 16 12.8706 16 12.8671C16 12.8635 16 12.86 16 12.8565C16 12.853 16 12.8495 16 12.8459C16 12.8424 16 12.8389 16 12.8354C16 12.8319 16 12.8284 16 12.8249C16 12.8214 16 12.8179 16 12.8145C16 12.811 16 12.8075 16 12.804C16 12.8005 16 12.7971 16 12.7936C16 12.7901 16 12.7867 16 12.7832C16 12.7798 16 12.7763 16 12.7729C16 12.7694 16 12.766 16 12.7626C16 12.7591 16 12.7557 16 12.7523C16 12.7488 16 12.7454 16 12.742C16 12.7386 16 12.7352 16 12.7318C16 12.7284 16 12.725 16 12.7216C16 12.7182 16 12.7148 16 12.7114C16 12.708 16 12.7046 16 12.7012C16 12.6979 16 12.6945 16 12.6911C16 12.6878 16 12.6844 16 12.681C16 12.6777 16 12.6743 16 12.671C16 12.6676 16 12.6643 16 12.661C16 12.6576 16 12.6543 16 12.651C16 12.6476 16 12.6443 16 12.641C16 12.6377 16 12.6344 16 12.6311C16 12.6278 16 12.6245 16 12.6212C16 12.6179 16 12.6146 16 12.6113C16 12.608 16 12.6047 16 12.6015C16 12.5982 16 12.5949 16 12.5917C16 12.5884 16 12.5851 16 12.5819C16 12.5786 16 12.5754 16 12.5722C16 12.5689 16 12.5657 16 12.5625C16 12.5592 16 12.556 16 12.5528C16 12.5496 16 12.5463 16 12.5431C16 12.5399 16 12.5367 16 12.5335C16 12.5303 16 12.5271 16 12.524C16 12.5208 16 12.5176 16 12.5144C16 12.5112 16 12.5081 16 12.5049C16 12.5017 16 12.4986 16 12.4954C16 12.4923 16 12.4891 16 12.486C16 12.4829 16 12.4797 16 12.4766C16 12.4735 16 12.4703 16 12.4672C16 12.4641 16 12.461 16 12.4579C16 12.4548 16 12.4517 16 12.4486C16 12.4455 16 12.4424 16 12.4393C16 12.4362 16 12.4332 16 12.4301C16 12.427 16 12.424 16 12.4209C16 12.4178 16 12.4148 16 12.4117C16 12.4087 16 12.4056 16 12.4026C16 12.3996 16 12.3965 16 12.3935C16 12.3905 16 12.3875 16 12.3845C16 12.3815 16 12.3784 16 12.3754C16 12.3724 16 12.3695 16 12.3665C16 12.3635 16 12.3605 16 12.3575C16 12.3546 16 12.3516 16 12.3486C16 12.3457 16 12.3427 16 12.3398C16 12.3368 16 12.3339 16 12.3309C16 12.328 16 12.325 16 12.3221C16 12.3192 16 12.3163 16 12.3134C16 12.3105 16 12.3075 16 12.3046C16 12.3017 16 12.2989 16 12.296C16 12.2931 16 12.2902 16 12.2873C16 12.2844 16 12.2816 16 12.2787C16 12.2759 16 12.273 16 12.2701C16 12.2673 16 12.2645 16 12.2616C16 12.2588 16 12.256 16 12.2531C16 12.2503 16 12.2475 16 12.2447C16 12.2419 16 12.2391 16 12.2363C16 12.2335 16 12.2307 16 12.2279C16 12.2251 16 12.2223 16 12.2196C16 12.2168 16 12.214 16 12.2113C16 12.2085 16 12.2058 16 12.203C16 12.2003 16 12.1975 16 12.1948C16 12.1921 16 12.1893 16 12.1866C16 12.1839 16 12.1812 16 12.1785C16 12.1758 16 12.1731 16 12.1704C16 12.1677 16 12.165 16 12.1624C16 12.1597 16 12.157 16 12.1543C16 12.1517 16 12.149 16 12.1464C16 12.1437 16 12.1411 16 12.1384C16 12.1358 16 12.1332 16 12.1306C16 12.1279 16 12.1253 16 12.1227C16 12.1201 16 12.1175 16 12.1149C16 12.1123 16 12.1097 16 12.1072C16 12.1046 16 12.102 16 12.0994C16 12.0969 16 12.0943 16 12.0918C16 12.0892 16 12.0867 16 12.0841C16 12.0816 16 12.0791 16 12.0765C16 12.074 16 12.0715 16 12.069C16 12.0665 16 12.064 16 12.0615C16 12.059 16 12.0565 16 12.054C16 12.0515 16 12.0491 16 12.0466C16 12.0441 16 12.0417 16 12.0392C16 12.0368 16 12.0343 16 12.0319C16 12.0295 16 12.027 16 12.0246C16 12.0222 16 12.0198 16 12.0174C16 12.015 16 12.0126 16 12.0102C16 12.0078 16 12.0054 16 12.003C16 12.0007 16 11.9983 16 11.9959C16 11.9936 16 11.9912 16 11.9889C16 11.9865 16 11.9842 16 11.9818C16 11.9795 16 11.9772 16 11.9749C16 11.9726 16 11.9702 16 11.9679C16 11.9656 16 11.9634 16 11.9611C16 11.9588 16 11.9565 16 11.9542C16 11.952 16 11.9497 16 11.9474C16 11.9452 16 11.9429 16 11.9407C16 11.9385 16 11.9362 16 11.934C16 11.9318 16 11.9296 16 11.9274C16 11.9252 16 11.923 16 11.9208C16 11.9186 16 11.9164 16 11.9142C16 11.912 16 11.9099 16 11.9077C16 11.9055 16 11.9034 16 11.9012C16 11.8991 16 11.897 16 11.8948C16 11.8927 16 11.8906 16 11.8885C16 11.8863 16 11.8842 16 11.8821C16 11.88 16 11.878 16 11.8759C16 11.8738 16 11.8717 16 11.8697C16 11.8676 16 11.8655 16 11.8635C16 11.8614 16 11.8594 16 11.8574C16 11.8553 16 11.8533 16 11.8513C16 11.8493 16 11.8473 16 11.8453C16 11.8433 16 11.8413 16 11.8393C16 11.8373 16 11.8353 16 11.8334C16 11.8314 16 11.8294 16 11.8275C16 11.8255 16 11.8236 16 11.8216C16 11.8197 16 11.8178 16 11.8159C16 11.814 16 11.812 16 11.8101C16 11.8082 16 11.8063 16 11.8045C16 11.8026 16 11.8007 16 11.7988C16 11.797 16 11.7951 16 11.7933C16 11.7914 16 11.7896 16 11.7877C16 11.7859 16 11.7841 16 11.7823C16 11.7804 16 11.7786 16 11.7768C16 11.775 16 11.7732 16 11.7715C16 11.7697 16 11.7679 16 11.7661C16 11.7644 16 11.7626 16 11.7609C16 11.7591 16 11.7574 16 11.7557C16 11.7539 16 11.7522 16 11.7505C16 11.7488 16 11.7471 16 11.7454C16 11.7437 16 11.742 16 11.7403C16 11.7386 16 11.737 16 11.7353C16 11.7337 16 11.732 16 11.7304C16 11.7287 16 11.7271 16 11.7255C16 11.7238 16 11.7222 16 11.7206C16 11.719 16 11.7174 16 11.7158C16 11.7142 16 11.7127 16 11.7111C16 11.7095 16 11.7079 16 11.7064C16 11.7048 16 11.7033 16 11.7018C16 11.7002 16 11.6987 16 11.6972C16 11.6957 16 11.6942 16 11.6927C16 11.6912 16 11.6897 16 11.6882C16 11.6867 16 11.6852 16 11.6838C16 11.6823 16 11.6809 16 11.6794C16 11.678 16 11.6765 16 11.6751C16 11.6737 16 11.6723 16 11.6709C16 11.6695 16 11.6681 16 11.6667H18C18 11.6681 18 11.6695 18 11.6709C18 11.6723 18 11.6737 18 11.6751C18 11.6765 18 11.678 18 11.6794C18 11.6809 18 11.6823 18 11.6838C18 11.6852 18 11.6867 18 11.6882C18 11.6897 18 11.6912 18 11.6927C18 11.6942 18 11.6957 18 11.6972C18 11.6987 18 11.7002 18 11.7018C18 11.7033 18 11.7048 18 11.7064C18 11.7079 18 11.7095 18 11.7111C18 11.7127 18 11.7142 18 11.7158C18 11.7174 18 11.719 18 11.7206C18 11.7222 18 11.7238 18 11.7255C18 11.7271 18 11.7287 18 11.7304C18 11.732 18 11.7337 18 11.7353C18 11.737 18 11.7386 18 11.7403C18 11.742 18 11.7437 18 11.7454C18 11.7471 18 11.7488 18 11.7505C18 11.7522 18 11.7539 18 11.7557C18 11.7574 18 11.7591 18 11.7609C18 11.7626 18 11.7644 18 11.7661C18 11.7679 18 11.7697 18 11.7715C18 11.7732 18 11.775 18 11.7768C18 11.7786 18 11.7804 18 11.7823C18 11.7841 18 11.7859 18 11.7877C18 11.7896 18 11.7914 18 11.7933C18 11.7951 18 11.797 18 11.7988C18 11.8007 18 11.8026 18 11.8045C18 11.8063 18 11.8082 18 11.8101C18 11.812 18 11.814 18 11.8159C18 11.8178 18 11.8197 18 11.8216C18 11.8236 18 11.8255 18 11.8275C18 11.8294 18 11.8314 18 11.8334C18 11.8353 18 11.8373 18 11.8393C18 11.8413 18 11.8433 18 11.8453C18 11.8473 18 11.8493 18 11.8513C18 11.8533 18 11.8553 18 11.8574C18 11.8594 18 11.8614 18 11.8635C18 11.8655 18 11.8676 18 11.8697C18 11.8717 18 11.8738 18 11.8759C18 11.878 18 11.88 18 11.8821C18 11.8842 18 11.8863 18 11.8885C18 11.8906 18 11.8927 18 11.8948C18 11.897 18 11.8991 18 11.9012C18 11.9034 18 11.9055 18 11.9077C18 11.9099 18 11.912 18 11.9142C18 11.9164 18 11.9186 18 11.9208C18 11.923 18 11.9252 18 11.9274C18 11.9296 18 11.9318 18 11.934C18 11.9362 18 11.9385 18 11.9407C18 11.9429 18 11.9452 18 11.9474C18 11.9497 18 11.952 18 11.9542C18 11.9565 18 11.9588 18 11.9611C18 11.9634 18 11.9656 18 11.9679C18 11.9702 18 11.9726 18 11.9749C18 11.9772 18 11.9795 18 11.9818C18 11.9842 18 11.9865 18 11.9889C18 11.9912 18 11.9936 18 11.9959C18 11.9983 18 12.0007 18 12.003C18 12.0054 18 12.0078 18 12.0102C18 12.0126 18 12.015 18 12.0174C18 12.0198 18 12.0222 18 12.0246C18 12.027 18 12.0295 18 12.0319C18 12.0343 18 12.0368 18 12.0392C18 12.0417 18 12.0441 18 12.0466C18 12.0491 18 12.0515 18 12.054C18 12.0565 18 12.059 18 12.0615C18 12.064 18 12.0665 18 12.069C18 12.0715 18 12.074 18 12.0765C18 12.0791 18 12.0816 18 12.0841C18 12.0867 18 12.0892 18 12.0918C18 12.0943 18 12.0969 18 12.0994C18 12.102 18 12.1046 18 12.1072C18 12.1097 18 12.1123 18 12.1149C18 12.1175 18 12.1201 18 12.1227C18 12.1253 18 12.1279 18 12.1306C18 12.1332 18 12.1358 18 12.1384C18 12.1411 18 12.1437 18 12.1464C18 12.149 18 12.1517 18 12.1543C18 12.157 18 12.1597 18 12.1624C18 12.165 18 12.1677 18 12.1704C18 12.1731 18 12.1758 18 12.1785C18 12.1812 18 12.1839 18 12.1866C18 12.1893 18 12.1921 18 12.1948C18 12.1975 18 12.2003 18 12.203C18 12.2058 18 12.2085 18 12.2113C18 12.214 18 12.2168 18 12.2196C18 12.2223 18 12.2251 18 12.2279C18 12.2307 18 12.2335 18 12.2363C18 12.2391 18 12.2419 18 12.2447C18 12.2475 18 12.2503 18 12.2531C18 12.256 18 12.2588 18 12.2616C18 12.2645 18 12.2673 18 12.2701C18 12.273 18 12.2759 18 12.2787C18 12.2816 18 12.2844 18 12.2873C18 12.2902 18 12.2931 18 12.296C18 12.2989 18 12.3017 18 12.3046C18 12.3075 18 12.3105 18 12.3134C18 12.3163 18 12.3192 18 12.3221C18 12.325 18 12.328 18 12.3309C18 12.3339 18 12.3368 18 12.3398C18 12.3427 18 12.3457 18 12.3486C18 12.3516 18 12.3546 18 12.3575C18 12.3605 18 12.3635 18 12.3665C18 12.3695 18 12.3724 18 12.3754C18 12.3784 18 12.3815 18 12.3845C18 12.3875 18 12.3905 18 12.3935C18 12.3965 18 12.3996 18 12.4026C18 12.4056 18 12.4087 18 12.4117C18 12.4148 18 12.4178 18 12.4209C18 12.424 18 12.427 18 12.4301C18 12.4332 18 12.4362 18 12.4393C18 12.4424 18 12.4455 18 12.4486C18 12.4517 18 12.4548 18 12.4579C18 12.461 18 12.4641 18 12.4672C18 12.4703 18 12.4735 18 12.4766C18 12.4797 18 12.4829 18 12.486C18 12.4891 18 12.4923 18 12.4954C18 12.4986 18 12.5017 18 12.5049C18 12.5081 18 12.5112 18 12.5144C18 12.5176 18 12.5208 18 12.524C18 12.5271 18 12.5303 18 12.5335C18 12.5367 18 12.5399 18 12.5431C18 12.5463 18 12.5496 18 12.5528C18 12.556 18 12.5592 18 12.5625C18 12.5657 18 12.5689 18 12.5722C18 12.5754 18 12.5786 18 12.5819C18 12.5851 18 12.5884 18 12.5917C18 12.5949 18 12.5982 18 12.6015C18 12.6047 18 12.608 18 12.6113C18 12.6146 18 12.6179 18 12.6212C18 12.6245 18 12.6278 18 12.6311C18 12.6344 18 12.6377 18 12.641C18 12.6443 18 12.6476 18 12.651C18 12.6543 18 12.6576 18 12.661C18 12.6643 18 12.6676 18 12.671C18 12.6743 18 12.6777 18 12.681C18 12.6844 18 12.6878 18 12.6911C18 12.6945 18 12.6979 18 12.7012C18 12.7046 18 12.708 18 12.7114C18 12.7148 18 12.7182 18 12.7216C18 12.725 18 12.7284 18 12.7318C18 12.7352 18 12.7386 18 12.742C18 12.7454 18 12.7488 18 12.7523C18 12.7557 18 12.7591 18 12.7626C18 12.766 18 12.7694 18 12.7729C18 12.7763 18 12.7798 18 12.7832C18 12.7867 18 12.7901 18 12.7936C18 12.7971 18 12.8005 18 12.804C18 12.8075 18 12.811 18 12.8145C18 12.8179 18 12.8214 18 12.8249C18 12.8284 18 12.8319 18 12.8354C18 12.8389 18 12.8424 18 12.8459C18 12.8495 18 12.853 18 12.8565C18 12.86 18 12.8635 18 12.8671C18 12.8706 18 12.8741 18 12.8777C18 12.8812 18 12.8848 18 12.8883C18 12.8918 18 12.8954 18 12.899C18 12.9025 18 12.9061 18 12.9096C18 12.9132 18 12.9168 18 12.9204C18 12.9239 18 12.9275 18 12.9311C18 12.9347 18 12.9383 18 12.9419C18 12.9454 18 12.949 18 12.9526C18 12.9562 18 12.9599 18 12.9635C18 12.9671 18 12.9707 18 12.9743C18 12.9779 18 12.9815 18 12.9852C18 12.9888 18 12.9924 18 12.9961C18 12.9997 18 13.0033 18 13.007C18 13.0106 18 13.0143 18 13.0179C18 13.0216 18 13.0252 18 13.0289C18 13.0325 18 13.0362 18 13.0399C18 13.0435 18 13.0472 18 13.0509C18 13.0546 18 13.0583 18 13.0619C18 13.0656 18 13.0693 18 13.073C18 13.0767 18 13.0804 18 13.0841C18 13.0878 18 13.0915 18 13.0952C18 13.0989 18 13.1026 18 13.1063C18 13.11 18 13.1138 18 13.1175C18 13.1212 18 13.1249 18 13.1287C18 13.1324 18 13.1361 18 13.1399C18 13.1436 18 13.1474 18 13.1511C18 13.1548 18 13.1586 18 13.1624C18 13.1661 18 13.1699 18 13.1736C18 13.1774 18 13.1811 18 13.1849C18 13.1887 18 13.1925 18 13.1962C18 13.2 18 13.2038 18 13.2076C18 13.2114 18 13.2151 18 13.2189C18 13.2227 18 13.2265 18 13.2303C18 13.2341 18 13.2379 18 13.2417C18 13.2455 18 13.2493 18 13.2531C18 13.2569 18 13.2608 18 13.2646C18 13.2684 18 13.2722 18 13.276C18 13.2799 18 13.2837 18 13.2875C18 13.2914 18 13.2952 18 13.299C18 13.3029 18 13.3067 18 13.3106C18 13.3144 18 13.3183 18 13.3221C18 13.326 18 13.3298 18 13.3337C18 13.3375 18 13.3414 18 13.3453C18 13.3491 18 13.353 18 13.3569C18 13.3607 18 13.3646 18 13.3685C18 13.3724 18 13.3762 18 13.3801C18 13.384 18 13.3879 18 13.3918C18 13.3957 18 13.3996 18 13.4035C18 13.4074 18 13.4113 18 13.4152C18 13.4191 18 13.423 18 13.4269C18 13.4308 18 13.4347 18 13.4386C18 13.4425 18 13.4464 18 13.4504C18 13.4543 18 13.4582 18 13.4621C18 13.4661 18 13.47 18 13.4739C18 13.4779 18 13.4818 18 13.4857C18 13.4897 18 13.4936 18 13.4976C18 13.5015 18 13.5054 18 13.5094C18 13.5133 18 13.5173 18 13.5212C18 13.5252 18 13.5292 18 13.5331C18 13.5371 18 13.541 18 13.545C18 13.549 18 13.5529 18 13.5569C18 13.5609 18 13.5649 18 13.5688C18 13.5728 18 13.5768 18 13.5808C18 13.5848 18 13.5887 18 13.5927C18 13.5967 18 13.6007 18 13.6047C18 13.6087 18 13.6127 18 13.6167C18 13.6207 18 13.6247 18 13.6287C18 13.6327 18 13.6367 18 13.6407C18 13.6447 18 13.6487 18 13.6527C18 13.6567 18 13.6608 18 13.6648C18 13.6688 18 13.6728 18 13.6768C18 13.6809 18 13.6849 18 13.6889C18 13.6929 18 13.697 18 13.701C18 13.705 18 13.7091 18 13.7131C18 13.7171 18 13.7212 18 13.7252C18 13.7293 18 13.7333 18 13.7373C18 13.7414 18 13.7454 18 13.7495C18 13.7535 18 13.7576 18 13.7616C18 13.7657 18 13.7698 18 13.7738C18 13.7779 18 13.7819 18 13.786C18 13.7901 18 13.7941 18 13.7982C18 13.8023 18 13.8063 18 13.8104C18 13.8145 18 13.8185 18 13.8226C18 13.8267 18 13.8308 18 13.8348C18 13.8389 18 13.843 18 13.8471C18 13.8512 18 13.8553 18 13.8593C18 13.8634 18 13.8675 18 13.8716C18 13.8757 18 13.8798 18 13.8839C18 13.888 18 13.8921 18 13.8962C18 13.9003 18 13.9044 18 13.9085C18 13.9126 18 13.9167 18 13.9208C18 13.9249 18 13.929 18 13.9331C18 13.9372 18 13.9413 18 13.9454C18 13.9495 18 13.9537 18 13.9578C18 13.9619 18 13.966 18 13.9701C18 13.9742 18 13.9784 18 13.9825C18 13.9866 18 13.9907 18 13.9949C18 13.999 18 14.0031 18 14.0072C18 14.0114 18 14.0155 18 14.0196C18 14.0238 18 14.0279 18 14.032C18 14.0362 18 14.0403 18 14.0444C18 14.0486 18 14.0527 18 14.0569C18 14.061 18 14.0651 18 14.0693C18 14.0734 18 14.0776 18 14.0817C18 14.0859 18 14.09 18 14.0942C18 14.0983 18 14.1025 18 14.1066C18 14.1108 18 14.1149 18 14.1191C18 14.1232 18 14.1274 18 14.1315C18 14.1357 18 14.1399 18 14.144C18 14.1482 18 14.1523 18 14.1565C18 14.1607 18 14.1648 18 14.169C18 14.1732 18 14.1773 18 14.1815C18 14.1856 18 14.1898 18 14.194C18 14.1982 18 14.2023 18 14.2065C18 14.2107 18 14.2148 18 14.219C18 14.2232 18 14.2274 18 14.2315C18 14.2357 18 14.2399 18 14.2441C18 14.2482 18 14.2524 18 14.2566C18 14.2608 18 14.265 18 14.2691C18 14.2733 18 14.2775 18 14.2817C18 14.2859 18 14.29 18 14.2942C18 14.2984 18 14.3026 18 14.3068C18 14.311 18 14.3152 18 14.3193C18 14.3235 18 14.3277 18 14.3319C18 14.3361 18 14.3403 18 14.3445C18 14.3487 18 14.3529 18 14.3571C18 14.3612 18 14.3654 18 14.3696C18 14.3738 18 14.378 18 14.3822C18 14.3864 18 14.3906 18 14.3948C18 14.399 18 14.4032 18 14.4074C18 14.4116 18 14.4158 18 14.42C18 14.4242 18 14.4284 18 14.4326C18 14.4368 18 14.441 18 14.4452C18 14.4494 18 14.4536 18 14.4578C18 14.462 18 14.4662 18 14.4704C18 14.4746 18 14.4788 18 14.483C18 14.4872 18 14.4914 18 14.4956C18 14.4998 18 14.504 18 14.5082C18 14.5124 18 14.5166 18 14.5208C18 14.525 18 14.5293 18 14.5335C18 14.5377 18 14.5419 18 14.5461C18 14.5503 18 14.5545 18 14.5587C18 14.5629 18 14.5671 18 14.5713C18 14.5755 18 14.5797 18 14.5839C18 14.5881 18 14.5924 18 14.5966C18 14.6008 18 14.605 18 14.6092C18 14.6134 18 14.6176 18 14.6218C18 14.626 18 14.6302 18 14.6344C18 14.6386 18 14.6429 18 14.6471C18 14.6513 18 14.6555 18 14.6597C18 14.6639 18 14.6681 18 14.6723C18 14.6765 18 14.6807 18 14.6849C18 14.6891 18 14.6934 18 14.6976C18 14.7018 18 14.706 18 14.7102C18 14.7144 18 14.7186 18 14.7228C18 14.727 18 14.7312 18 14.7354C18 14.7396 18 14.7439 18 14.7481C18 14.7523 18 14.7565 18 14.7607C18 14.7649 18 14.7691 18 14.7733C18 14.7775 18 14.7817 18 14.7859C18 14.7901 18 14.7943 18 14.7985C18 14.8027 18 14.8069 18 14.8111C18 14.8153 18 14.8195 18 14.8237C18 14.8279 18 14.8322 18 14.8364C18 14.8406 18 14.8448 18 14.849C18 14.8532 18 14.8574 18 14.8616C18 14.8658 18 14.87 18 14.8742C18 14.8784 18 14.8826 18 14.8868C18 14.891 18 14.8951 18 14.8993C18 14.9035 18 14.9077 18 14.9119C18 14.9161 18 14.9203 18 14.9245C18 14.9287 18 14.9329 18 14.9371C18 14.9413 18 14.9455 18 14.9497C18 14.9539 18 14.9581 18 14.9622C18 14.9664 18 14.9706 18 14.9748C18 14.979 18 14.9832 18 14.9874C18 14.9916 18 14.9957 18 14.9999C18 15.0041 18 15.0083 18 15.0125C18 15.0167 18 15.0209 18 15.025C18 15.0292 18 15.0334 18 15.0376C18 15.0418 18 15.0459 18 15.0501C18 15.0543 18 15.0585 18 15.0626C18 15.0668 18 15.071 18 15.0752C18 15.0793 18 15.0835 18 15.0877C18 15.0919 18 15.096 18 15.1002C18 15.1044 18 15.1085 18 15.1127C18 15.1169 18 15.121 18 15.1252C18 15.1294 18 15.1335 18 15.1377C18 15.1419 18 15.146 18 15.1502C18 15.1543 18 15.1585 18 15.1627C18 15.1668 18 15.171 18 15.1751C18 15.1793 18 15.1834 18 15.1876C18 15.1917 18 15.1959 18 15.2C18 15.2042 18 15.2083 18 15.2125C18 15.2166 18 15.2208 18 15.2249C18 15.2291 18 15.2332 18 15.2374C18 15.2415 18 15.2456 18 15.2498C18 15.2539 18 15.2581 18 15.2622C18 15.2663 18 15.2705 18 15.2746C18 15.2787 18 15.2829 18 15.287C18 15.2911 18 15.2953 18 15.2994C18 15.3035 18 15.3076 18 15.3118C18 15.3159 18 15.32 18 15.3241C18 15.3282 18 15.3324 18 15.3365C18 15.3406 18 15.3447 18 15.3488C18 15.3529 18 15.3571 18 15.3612C18 15.3653 18 15.3694 18 15.3735C18 15.3776 18 15.3817 18 15.3858C18 15.3899 18 15.394 18 15.3981C18 15.4022 18 15.4063 18 15.4104C18 15.4145 18 15.4186 18 15.4227C18 15.4268 18 15.4309 18 15.435C18 15.439 18 15.4431 18 15.4472C18 15.4513 18 15.4554 18 15.4595C18 15.4635 18 15.4676 18 15.4717C18 15.4758 18 15.4799 18 15.4839C18 15.488 18 15.4921 18 15.4961C18 15.5002 18 15.5043 18 15.5083C18 15.5124 18 15.5165 18 15.5205C18 15.5246 18 15.5286 18 15.5327C18 15.5368 18 15.5408 18 15.5449C18 15.5489 18 15.553 18 15.557C18 15.5611 18 15.5651 18 15.5691C18 15.5732 18 15.5772 18 15.5813C18 15.5853 18 15.5893 18 15.5934C18 15.5974 18 15.6014 18 15.6055C18 15.6095 18 15.6135 18 15.6175C18 15.6216 18 15.6256 18 15.6296C18 15.6336 18 15.6377 18 15.6417C18 15.6457 18 15.6497 18 15.6537C18 15.6577 18 15.6617 18 15.6657C18 15.6697 18 15.6737 18 15.6777C18 15.6817 18 15.6857 18 15.6897C18 15.6937 18 15.6977 18 15.7017C18 15.7057 18 15.7097 18 15.7137C18 15.7176 18 15.7216 18 15.7256C18 15.7296 18 15.7336 18 15.7375C18 15.7415 18 15.7455 18 15.7495C18 15.7534 18 15.7574 18 15.7613C18 15.7653 18 15.7693 18 15.7732C18 15.7772 18 15.7811 18 15.7851C18 15.789 18 15.793 18 15.7969C18 15.8009 18 15.8048 18 15.8088C18 15.8127 18 15.8167 18 15.8206C18 15.8245 18 15.8285 18 15.8324C18 15.8363 18 15.8402 18 15.8442C18 15.8481 18 15.852 18 15.8559C18 15.8598 18 15.8638 18 15.8677C18 15.8716 18 15.8755 18 15.8794C18 15.8833 18 15.8872 18 15.8911C18 15.895 18 15.8989 18 15.9028C18 15.9067 18 15.9106 18 15.9145C18 15.9183 18 15.9222 18 15.9261C18 15.93 18 15.9339 18 15.9377C18 15.9416 18 15.9455 18 15.9494C18 15.9532 18 15.9571 18 15.9609C18 15.9648 18 15.9687 18 15.9725C18 15.9764 18 15.9802 18 15.9841C18 15.9879 18 15.9918 18 15.9956C18 15.9995 18 16.0033 18 16.0071C18 16.011 18 16.0148 18 16.0186C18 16.0224 18 16.0263 18 16.0301C18 16.0339 18 16.0377 18 16.0415C18 16.0454 18 16.0492 18 16.053C18 16.0568 18 16.0606 18 16.0644C18 16.0682 18 16.072 18 16.0758C18 16.0796 18 16.0834 18 16.0872C18 16.0909 18 16.0947 18 16.0985C18 16.1023 18 16.1061 18 16.1098C18 16.1136 18 16.1174 18 16.1211C18 16.1249 18 16.1287 18 16.1324C18 16.1362 18 16.1399 18 16.1437C18 16.1474 18 16.1512 18 16.1549C18 16.1586 18 16.1624 18 16.1661C18 16.1699 18 16.1736 18 16.1773C18 16.181 18 16.1848 18 16.1885C18 16.1922 18 16.1959 18 16.1996C18 16.2033 18 16.207 18 16.2107C18 16.2145 18 16.2182 18 16.2218C18 16.2255 18 16.2292 18 16.2329C18 16.2366 18 16.2403 18 16.244C18 16.2477 18 16.2513 18 16.255C18 16.2587 18 16.2623 18 16.266C18 16.2697 18 16.2733 18 16.277C18 16.2806 18 16.2843 18 16.2879C18 16.2916 18 16.2952 18 16.2989C18 16.3025 18 16.3061 18 16.3098C18 16.3134 18 16.317 18 16.3206C18 16.3243 18 16.3279 18 16.3315C18 16.3351 18 16.3387 18 16.3423C18 16.3459 18 16.3495 18 16.3531C18 16.3567 18 16.3603 18 16.3639C18 16.3675 18 16.3711 18 16.3747C18 16.3782 18 16.3818 18 16.3854C18 16.3889 18 16.3925 18 16.3961C18 16.3996 18 16.4032 18 16.4067C18 16.4103 18 16.4138 18 16.4174C18 16.4209 18 16.4245 18 16.428C18 16.4315 18 16.4351 18 16.4386C18 16.4421 18 16.4456 18 16.4492C18 16.4527 18 16.4562 18 16.4597C18 16.4632 18 16.4667 18 16.4702C18 16.4737 18 16.4772 18 16.4807C18 16.4842 18 16.4876 18 16.4911C18 16.4946 18 16.4981 18 16.5015C18 16.505 18 16.5085 18 16.5119C18 16.5154 18 16.5189 18 16.5223C18 16.5258 18 16.5292 18 16.5326C18 16.5361 18 16.5395 18 16.543C18 16.5464 18 16.5498 18 16.5532C18 16.5567 18 16.5601 18 16.5635C18 16.5669 18 16.5703 18 16.5737C18 16.5771 18 16.5805 18 16.5839C18 16.5873 18 16.5907 18 16.594C18 16.5974 18 16.6008 18 16.6042C18 16.6075 18 16.6109 18 16.6143C18 16.6176 18 16.621 18 16.6243C18 16.6277 18 16.631 18 16.6344C18 16.6377 18 16.6411 18 16.6444C18 16.6477 18 16.651 18 16.6544C18 16.6577 18 16.661 18 16.6643C18 16.6676 18 16.6709 18 16.6742C18 16.6775 18 16.6808 18 16.6841C18 16.6874 18 16.6907 18 16.694C18 16.6972 18 16.7005 18 16.7038C18 16.707 18 16.7103 18 16.7136C18 16.7168 18 16.7201 18 16.7233C18 16.7266 18 16.7298 18 16.733C18 16.7363 18 16.7395 18 16.7427C18 16.746 18 16.7492 18 16.7524C18 16.7556 18 16.7588 18 16.762C18 16.7652 18 16.7684 18 16.7716C18 16.7748 18 16.778 18 16.7812C18 16.7843 18 16.7875 18 16.7907C18 16.7938 18 16.797 18 16.8002C18 16.8033 18 16.8065 18 16.8096C18 16.8128 18 16.8159 18 16.819C18 16.8222 18 16.8253 18 16.8284C18 16.8315 18 16.8347 18 16.8378C18 16.8409 18 16.844 18 16.8471C18 16.8502 18 16.8533 18 16.8564C18 16.8595 18 16.8625 18 16.8656C18 16.8687 18 16.8718 18 16.8748C18 16.8779 18 16.881 18 16.884C18 16.8871 18 16.8901 18 16.8932C18 16.8962 18 16.8992 18 16.9023C18 16.9053 18 16.9083 18 16.9113C18 16.9143 18 16.9174 18 16.9204C18 16.9234 18 16.9264 18 16.9294C18 16.9323 18 16.9353 18 16.9383C18 16.9413 18 16.9443 18 16.9472C18 16.9502 18 16.9532 18 16.9561C18 16.9591 18 16.962 18 16.965C18 16.9679 18 16.9709 18 16.9738C18 16.9767 18 16.9796 18 16.9826C18 16.9855 18 16.9884 18 16.9913C18 16.9942 18 16.9971 18 17H16ZM16 11.6667C16 11.4277 15.9986 11.2978 15.9863 11.1955C15.976 11.1099 15.9639 11.1058 15.9758 11.1256C16.0024 11.1699 15.968 11.0434 15.3504 10.8376L15.9829 8.94021C16.6987 9.1788 17.3309 9.49675 17.6908 10.0966C18.0285 10.6594 18 11.3055 18 11.6667H16ZM15.3504 10.8376C14.2838 10.482 13.1282 10.0968 12.6838 9.94868L13.3162 8.05132C13.7607 8.19946 14.9162 8.58465 15.9829 8.94021L15.3504 10.8376ZM14 9V17H12V9H14Z" fill="#8A8DBA"/>
</g>
<defs>
<clipPath id="clip0_4870_104620">
<rect width="20" height="20" fill="white"/>
</clipPath>
</defs>
</svg>
