<svg width="20" height="20" viewBox="0 0 20 20" fill="none" xmlns="http://www.w3.org/2000/svg"><path d="M9.997 1c.319 0 .61.182.75.47l2.382 4.905 5.322.788c.313.045.57.264.67.563a.835.835 0 0 1-.204.85l-3.861 3.827.913 5.4a.832.832 0 0 1-.337.815c-.257.184-.628.208-.878.06l-4.757-2.543-4.785 2.542c-.25.15-.59.125-.85-.059a.928.928 0 0 1-.365-.816l.94-5.4L1.08 8.577a.831.831 0 0 1 .465-1.413l5.32-.788L9.247 1.47a.837.837 0 0 1 .75-.47Zm0 2.741L8.174 7.5a.847.847 0 0 1-.629.462l-4.108.604 2.983 2.955a.84.84 0 0 1 .233.732l-.702 4.153 3.653-1.951a.827.827 0 0 1 .785 0l3.653 1.951-.702-4.152a.843.843 0 0 1 .236-.733l2.983-2.955-4.108-.604a.835.835 0 0 1-.628-.462L9.997 3.741Z" fill="#8A8DBA"/></svg>