<svg width="20" height="20" viewBox="0 0 20 20" fill="none" xmlns="http://www.w3.org/2000/svg"><path d="m9.531 3.281.434.469.469-.468a5.683 5.683 0 0 1 4.902-1.56A5.582 5.582 0 0 1 20 7.23v.227a5.844 5.844 0 0 1-1.86 4.277l-7.058 6.59a1.585 1.585 0 0 1-2.164 0l-7.059-6.59A5.85 5.85 0 0 1 0 7.457V7.23a5.582 5.582 0 0 1 4.664-5.507A5.615 5.615 0 0 1 9.531 3.28c-.035 0 0 0 0 0Zm.434 3.121L8.207 4.574a3.79 3.79 0 0 0-3.234-1.002A3.71 3.71 0 0 0 1.875 7.23v.227a3.97 3.97 0 0 0 1.263 2.906L10 16.77l6.863-6.407a3.975 3.975 0 0 0 1.262-2.906V7.23a3.711 3.711 0 0 0-3.098-3.658 3.79 3.79 0 0 0-3.234 1.002L9.965 6.402Z" fill="#8A8DBA"/></svg>