<svg width="20" height="20" viewBox="0 0 20 20" fill="none" xmlns="http://www.w3.org/2000/svg"><g clip-path="url(#a)"><path d="M19.352 9.375h-8.727V.648c0-.353.238-.648.625-.648A8.75 8.75 0 0 1 20 8.75a.637.637 0 0 1-.648.625ZM8.75 11.25h8.645c.722 0 1.3.613 1.152 1.32A9.374 9.374 0 0 1 9.375 20 9.375 9.375 0 0 1 0 10.625c0-4.512 3.185-8.277 7.43-9.173.707-.149 1.32.43 1.32 1.153v8.645ZM6.875 3.551a7.504 7.504 0 0 0-5 7.074 7.48 7.48 0 0 0 7.5 7.5 7.504 7.504 0 0 0 7.074-5H6.875V3.551Z" fill="#8A8DBA"/></g><defs><clipPath id="a"><path fill="#fff" d="M0 0h20v20H0z"/></clipPath></defs></svg>