<svg width="20" height="20" viewBox="0 0 20 20" fill="none" xmlns="http://www.w3.org/2000/svg"><g clip-path="url(#a)" fill="#8A8DBA"><path d="M15 10c0 .333-.2 1-1 1h-4c-.57 0-1-.402-1-1V5c0-.8.667-1 1-1 .333 0 1 .2 1 1v4h3c.8 0 1 .667 1 1Z"/><path fill-rule="evenodd" clip-rule="evenodd" d="M1.685 15.556A10 10 0 0 1 0 10h2a8 8 0 1 0 8-8V0a10 10 0 1 1-8.315 15.556Z"/><path fill-rule="evenodd" clip-rule="evenodd" d="M8.264.152A10 10 0 0 0 5.306 1.17l.938 1.765A7.944 7.944 0 0 1 8.61 2.12L8.264.152Zm-4.226 1.82a10 10 0 0 0-1.81 1.735l1.555 1.258c.422-.52.908-.987 1.447-1.388L4.038 1.972Zm-.911 3.931L1.41 4.879a10 10 0 0 0-.807 1.7l1.877.684c.174-.476.39-.931.647-1.36Zm-.917 2.27L.264 7.716a10 10 0 0 0-.21 1.239l1.99.209c.034-.337.09-.668.166-.991Z"/></g><defs><clipPath id="a"><path fill="#fff" d="M0 0h20v20H0z"/></clipPath></defs></svg>