<svg width="20" height="20" viewBox="0 0 20 20" fill="none" xmlns="http://www.w3.org/2000/svg">
<g clip-path="url(#clip0_4870_104618)">
<path d="M15 10C15 10.3333 14.8 11 14 11H10C9.42969 11 9 10.5977 9 10V5C9 4.2 9.66667 4 10 4C10.3333 4 11 4.2 11 5V9H14C14.8 9 15 9.66667 15 10Z" fill="#8A8DBA"/>
<path fill-rule="evenodd" clip-rule="evenodd" d="M1.6853 15.5557C0.58649 13.9112 0 11.9778 0 10H2C2 14.4183 5.58172 18 10 18C14.4183 18 18 14.4183 18 10C18 5.58172 14.4183 2 10 2V0C11.9778 0 13.9112 0.58649 15.5557 1.6853C17.2002 2.78412 18.4819 4.3459 19.2388 6.17317C19.9957 8.00043 20.1937 10.0111 19.8079 11.9509C19.422 13.8907 18.4696 15.6725 17.0711 17.0711C15.6725 18.4696 13.8907 19.422 11.9509 19.8079C10.0111 20.1937 8.00043 19.9957 6.17317 19.2388C4.3459 18.4819 2.78412 17.2002 1.6853 15.5557Z" fill="#8A8DBA"/>
<path fill-rule="evenodd" clip-rule="evenodd" d="M8.2639 0.151855C7.23048 0.334075 6.23219 0.677815 5.30566 1.17046L6.24386 2.93495C6.97299 2.54646 7.76935 2.26754 8.61096 2.12016L8.2639 0.151855Z" fill="#8A8DBA"/>
<path fill-rule="evenodd" clip-rule="evenodd" d="M4.03773 1.97168C3.36427 2.47183 2.75643 3.05473 2.22852 3.70665L3.7826 4.96512C4.2049 4.44427 4.69133 3.97753 5.22988 3.57691L4.03773 1.97168Z" fill="#8A8DBA"/>
<path fill-rule="evenodd" clip-rule="evenodd" d="M3.12722 5.90285L1.41036 4.87939C1.08839 5.4195 0.818085 5.98876 0.603027 6.57962L2.48037 7.26292C2.65369 6.78682 2.87094 6.33183 3.12722 5.90285Z" fill="#8A8DBA"/>
<path fill-rule="evenodd" clip-rule="evenodd" d="M2.20953 8.1726L0.264118 7.71631C0.168435 8.12425 0.0984868 8.53781 0.0546875 8.95453L2.04309 9.16352C2.0781 8.82656 2.13401 8.49581 2.20953 8.1726Z" fill="#8A8DBA"/>
</g>
<defs>
<clipPath id="clip0_4870_104618">
<rect width="20" height="20" fill="white"/>
</clipPath>
</defs>
</svg>
