<svg width="20" height="21" viewBox="0 0 20 21" fill="none" xmlns="http://www.w3.org/2000/svg"><g clip-path="url(#a)"><path fill="#2B3458" d="M0 .5h20v20H0z"/><path fill-rule="evenodd" clip-rule="evenodd" d="M5.15 11.22c1.301 1.061 4.064 2.602 4.85 2.602.784 0 3.55-1.54 4.851-2.602.42.326.686.608.686.783 0 .72-4.501 3.411-5.537 3.411-1.04 0-5.537-2.695-5.537-3.411 0-.175.267-.456.687-.783Z" fill="#fff"/><path fill-rule="evenodd" clip-rule="evenodd" d="M10 12.23c-1.04 0-5.537-2.695-5.537-3.41 0-.717 4.497-3.234 5.537-3.234s5.537 2.514 5.537 3.233c0 .72-4.501 3.411-5.537 3.411Z" fill="#3E7BFA"/></g><defs><clipPath id="a"><rect y=".5" width="20" height="20" rx="2.326" fill="#fff"/></clipPath></defs></svg>