<svg width="43" height="43" viewBox="0 0 43 43" fill="none" xmlns="http://www.w3.org/2000/svg"><g clip-path="url(#a)"><path fill="#2B3458" d="M0 0h43v43H0z"/><path fill-rule="evenodd" clip-rule="evenodd" d="M11.073 23.049c2.797 2.28 8.737 5.594 10.427 5.594 1.685 0 7.633-3.312 10.43-5.595.9.7 1.475 1.307 1.475 1.683 0 1.547-9.678 7.334-11.905 7.334-2.235 0-11.905-5.795-11.905-7.334 0-.375.576-.98 1.478-1.683Z" fill="#fff"/><path fill-rule="evenodd" clip-rule="evenodd" d="M21.5 25.22c-2.235 0-11.905-5.795-11.905-7.334 0-1.539 9.67-6.951 11.905-6.951 2.235 0 11.905 5.405 11.905 6.951 0 1.547-9.678 7.334-11.905 7.334Z" fill="#3E7BFA"/></g><defs><clipPath id="a"><rect width="43" height="43" rx="5" fill="#fff"/></clipPath></defs></svg>