<svg width="20" height="20" viewBox="0 0 20 20" fill="none" xmlns="http://www.w3.org/2000/svg"><path d="M9 4c0 .527-.203 1.006-.537 1.362l.84 1.8A4.445 4.445 0 0 1 10.5 7c1.19 0 2.325.484 3.134 1.272L16.06 6.49A2 2 0 1 1 20 6a2.002 2.002 0 0 1-3.052 1.699L14.523 9.48A4.47 4.47 0 0 1 15 11.5c0 .578-.11 1.131-.31 1.64l2.107 1.263A2.002 2.002 0 0 1 20 16c0 1.103-.897 2-2 2a2.002 2.002 0 0 1-1.975-2.31l-2.106-1.265C13.066 15.391 11.869 16 10.5 16c-2.231 0-4.081-1.622-4.466-3.75h-2.18A2 2 0 1 1 2 9.5c.838 0 1.558.516 1.852 1.25h2.181a4.646 4.646 0 0 1 1.91-2.953l-.84-1.8C7.068 5.972 7.033 6 7 6a2 2 0 1 1 2-2Zm1.5 10.5a3 3 0 0 0 3-3c0-1.684-1.344-3-3-3-1.684 0-3 1.316-3 3 0 1.656 1.316 3 3 3Z" fill="#8A8DBA"/></svg>