<svg width="1269" height="300" viewBox="0 0 1269 300" fill="none" xmlns="http://www.w3.org/2000/svg"><path fill-rule="evenodd" clip-rule="evenodd" d="M27.861 170.813C65.456 201.473 145.29 246 168 246c22.647 0 102.594-44.516 140.187-75.194C320.288 180.224 328 188.365 328 193.428 328 214.213 197.937 292 168 292c-30.038 0-160-77.892-160-98.572 0-5.044 7.733-13.187 19.861-22.615Z" fill="#2B3458"/><path fill-rule="evenodd" clip-rule="evenodd" d="M168 200c-30.038 0-160-77.892-160-98.572C8 80.748 137.962 8 168 8c30.038 0 160 72.643 160 93.428C328 122.213 197.937 200 168 200Z" fill="#3E7BFA"/><path d="M401.7 76.4H544v35.4h-51.3v131.5h-39.8V111.8h-51.1V76.4h-.1Zm256.2 109.9v7.3h-89.5c1.3 8.3 4.3 14.6 9.1 19s11 6.6 18.5 6.6c11.9 0 20-4.5 24.4-13.6h34.7c-3.3 12.5-10.2 22.4-20.9 29.8-10.6 7.2-23.4 10.8-38.2 10.8-18.7 0-33.9-5.8-45.5-17.3-11.6-11.6-17.3-26.9-17.3-45.9 0-19.2 5.7-34.5 17.1-45.9 11.2-11.6 26.3-17.3 45.2-17.3 18.7 0 33.9 6 45.5 18 11.3 11.9 16.9 28.2 16.9 48.5Zm-62.8-39.8c-15 0-23.8 8-26.5 23.9H622c-1.3-7.5-4.2-13.4-8.9-17.6-4.7-4.2-10.7-6.3-18-6.3Zm135 99.6c-18.9 0-34-5.8-45.2-17.3-11.2-11.6-16.9-26.9-16.9-45.9 0-19.4 5.6-34.8 16.9-46.2 11.2-11.4 26.3-17.1 45.2-17.1 16.6 0 30.1 4.4 40.5 13.1 10.6 8.6 16.8 20.3 18.5 35.2h-36.3c-2-12.3-9.6-18.5-22.7-18.5-16.7 0-25.1 11.2-25.1 33.5 0 22.2 8.4 33.3 25.1 33.3 14.1 0 21.9-6.8 23.4-20.4h36.3c-1.1 15.3-7.1 27.6-18 36.8-10.9 8.9-24.9 13.5-41.7 13.5Zm151.1-126.6c12.8 0 23 3.9 30.5 11.7 7.7 7.7 11.5 18.6 11.5 32.8v79.2h-36.6v-71.9c0-13.7-6.5-20.6-19.5-20.6-6.6 0-12 2.2-16.4 6.6-4.4 4.4-6.6 10.5-6.6 18.5v67.5h-36.6V76.4h36.6v61.9c9.3-12.5 21.7-18.8 37.1-18.8Zm134.8 0c12.8 0 23 3.9 30.5 11.7 7.7 7.7 11.5 18.6 11.5 32.8v79.2h-36.6v-71.9c0-13.7-6.5-20.6-19.5-20.6-6.6 0-12 2.2-16.4 6.6-4.4 4.4-6.6 10.5-6.6 18.5v67.5h-36.6v-121H978v17.1c9.4-13.2 22.1-19.9 38-19.9Zm102.9-11H1084V77.6h34.9v30.9Zm.7 134.8H1083v-121h36.6v121Zm78.7 3.5c-19.1 0-33.3-3.3-42.7-9.8-9.2-6.7-14.4-17.4-15.5-32.1h35.6c.6 6.4 2.7 10.9 6.1 13.6 3.6 2.7 9.3 4 17.1 4 13.6 0 20.4-3.9 20.4-11.7 0-3.7-1.5-6.6-4.5-8.4-3-2-8.4-3.7-16.4-4.9l-15.7-2.6c-27.2-4.2-40.8-16.6-40.8-37 0-12.2 4.7-21.6 14.1-28.1 9.4-6.7 22.8-10.1 40.3-10.1 36.1 0 54.8 13.8 56.2 41.5h-34c-.2-11.4-7.6-17.1-22.3-17.1-12.3 0-18.5 3.8-18.5 11.5 0 3.4 1.4 6.1 4.2 8 2.8 1.9 7.3 3.3 13.4 4.2l18 2.6c14.5 2.2 25.2 6.3 32.1 12.4 6.9 6.1 10.3 14.5 10.3 25.1 0 12.5-5.1 22.2-15.2 29.1-9.8 6.4-23.9 9.8-42.2 9.8Z" fill="#2B3458"/></svg>