<svg width="336" height="337" viewBox="0 0 336 337" fill="none" xmlns="http://www.w3.org/2000/svg"><path fill-rule="evenodd" clip-rule="evenodd" d="M27.861 189.713C65.456 220.373 145.29 264.9 168 264.9c22.647 0 102.594-44.516 140.187-75.194C320.288 199.124 328 207.265 328 212.328c0 20.785-130.063 98.572-160 98.572-30.038 0-160-77.892-160-98.572 0-5.044 7.733-13.187 19.861-22.615Z" fill="#2B3458"/><path fill-rule="evenodd" clip-rule="evenodd" d="M168 218.9c-30.038 0-160-77.892-160-98.572C8 99.648 137.962 26.9 168 26.9c30.038 0 160 72.643 160 93.428 0 20.785-130.063 98.572-160 98.572Z" fill="#3E7BFA"/></svg>