<svg width="43" height="44" viewBox="0 0 43 44" fill="none" xmlns="http://www.w3.org/2000/svg"><path fill-rule="evenodd" clip-rule="evenodd" d="M3.566 24.564c4.81 3.923 15.027 9.622 17.934 9.622 2.898 0 13.13-5.697 17.94-9.623 1.55 1.205 2.536 2.247 2.536 2.895 0 2.66-16.645 12.615-20.476 12.615-3.844 0-20.476-9.969-20.476-12.615 0-.646.99-1.688 2.542-2.894Z" fill="#2B3458"/><path fill-rule="evenodd" clip-rule="evenodd" d="M21.5 28.299c-3.844 0-20.476-9.968-20.476-12.615 0-2.647 16.632-11.957 20.476-11.957 3.844 0 20.476 9.297 20.476 11.957S25.331 28.299 21.5 28.299Z" fill="#3E7BFA"/></svg>