<svg width="20" height="21" viewBox="0 0 20 21" fill="none" xmlns="http://www.w3.org/2000/svg"><path d="M7 10.5a4 4 0 1 0 0-8 4 4 0 0 0 0 8ZM7 4c1.378 0 2.5 1.122 2.5 2.5S8.378 9 7 9a2.503 2.503 0 0 1-2.5-2.5C4.5 5.122 5.622 4 7 4Zm1.584 8H5.416A5.415 5.415 0 0 0 0 17.416c0 .6.485 1.084 1.083 1.084h11.833c.6 0 1.084-.484 1.084-1.084A5.416 5.416 0 0 0 8.584 12Zm-7.062 5a3.92 3.92 0 0 1 3.894-3.5h3.168c2.02 0 3.66 1.535 3.894 3.5H1.522Zm13.45-4.5h-2.308A6.33 6.33 0 0 1 15 17.416c0 .4-.119.768-.313 1.084H19c.553 0 1-.45 1-1.028 0-2.735-2.238-4.972-5.028-4.972Zm-1.472-2c1.934 0 3.5-1.566 3.5-3.5s-1.566-3.5-3.5-3.5a3.47 3.47 0 0 0-2.085.703c.36.692.585 1.466.585 2.297a4.96 4.96 0 0 1-.987 2.96A3.489 3.489 0 0 0 13.5 10.5Z" fill="#8A8DBA"/></svg>